<?xml version="1.0" encoding="utf-8"?>
<svg width="73px" height="20px" viewBox="0 0 73 20" version="1.1" xmlns:xlink="http://www.w3.org/1999/xlink" xmlns="http://www.w3.org/2000/svg">
  <path d="M13.13 19.006L13.13 15.574L4.082 15.574L4.082 0.442L0 0.442L0 19.006L13.13 19.006ZM23.738 19.422C25.1767 19.422 26.4593 19.175 27.586 18.681C28.7127 18.187 29.666 17.5067 30.446 16.64C31.226 15.7733 31.824 14.755 32.24 13.585C32.656 12.415 32.864 11.154 32.864 9.802C32.864 8.41533 32.656 7.12833 32.24 5.941C31.824 4.75367 31.226 3.718 30.446 2.834C29.666 1.95 28.7127 1.25667 27.586 0.754C26.4593 0.251333 25.1767 0 23.738 0C22.3167 0 21.0383 0.251333 19.903 0.754C18.7677 1.25667 17.81 1.95 17.03 2.834C16.25 3.718 15.652 4.75367 15.236 5.941C14.82 7.12833 14.612 8.41533 14.612 9.802C14.612 11.154 14.82 12.415 15.236 13.585C15.652 14.755 16.25 15.7733 17.03 16.64C17.81 17.5067 18.7677 18.187 19.903 18.681C21.0383 19.175 22.3167 19.422 23.738 19.422ZM23.738 16.016C22.8193 16.016 22.0393 15.8383 21.398 15.483C20.7567 15.1277 20.2367 14.6553 19.838 14.066C19.4393 13.4767 19.149 12.8137 18.967 12.077C18.785 11.3403 18.694 10.582 18.694 9.802C18.694 8.98733 18.785 8.19867 18.967 7.436C19.149 6.67333 19.4393 5.993 19.838 5.395C20.2367 4.797 20.7567 4.32033 21.398 3.965C22.0393 3.60967 22.8193 3.432 23.738 3.432C24.6567 3.432 25.4367 3.60967 26.078 3.965C26.7193 4.32033 27.2393 4.797 27.638 5.395C28.0367 5.993 28.327 6.67333 28.509 7.436C28.691 8.19867 28.782 8.98733 28.782 9.802C28.782 10.582 28.691 11.3403 28.509 12.077C28.327 12.8137 28.0367 13.4767 27.638 14.066C27.2393 14.6553 26.7193 15.1277 26.078 15.483C25.4367 15.8383 24.6567 16.016 23.738 16.016ZM43.966 19.422C44.8673 19.422 45.76 19.2357 46.644 18.863C47.528 18.4903 48.334 17.836 49.062 16.9L49.478 19.006L52.078 19.006L52.078 8.97L44.278 8.97L44.278 12.012L48.386 12.012C48.2647 13.312 47.8357 14.3043 47.099 14.989C46.3623 15.6737 45.318 16.016 43.966 16.016C43.0473 16.016 42.2673 15.8383 41.626 15.483C40.9847 15.1277 40.4647 14.6553 40.066 14.066C39.6673 13.4767 39.377 12.8137 39.195 12.077C39.013 11.3403 38.922 10.582 38.922 9.802C38.922 8.98733 39.013 8.19867 39.195 7.436C39.377 6.67333 39.6673 5.993 40.066 5.395C40.4647 4.797 40.9847 4.32033 41.626 3.965C42.2673 3.60967 43.0473 3.432 43.966 3.432C44.954 3.432 45.7947 3.692 46.488 4.212C47.1813 4.732 47.6493 5.512 47.892 6.552L51.792 6.552C51.688 5.49467 51.402 4.55867 50.934 3.744C50.466 2.92933 49.8723 2.24467 49.153 1.69C48.4337 1.13533 47.6277 0.715 46.735 0.429C45.8423 0.143 44.9193 0 43.966 0C42.5447 0 41.2663 0.251333 40.131 0.754C38.9957 1.25667 38.038 1.95 37.258 2.834C36.478 3.718 35.88 4.75367 35.464 5.941C35.048 7.12833 34.84 8.41533 34.84 9.802C34.84 11.154 35.048 12.415 35.464 13.585C35.88 14.755 36.478 15.7733 37.258 16.64C38.038 17.5067 38.9957 18.187 40.131 18.681C41.2663 19.175 42.5447 19.422 43.966 19.422ZM63.7 19.422C65.1387 19.422 66.4213 19.175 67.548 18.681C68.6747 18.187 69.628 17.5067 70.408 16.64C71.188 15.7733 71.786 14.755 72.202 13.585C72.618 12.415 72.826 11.154 72.826 9.802C72.826 8.41533 72.618 7.12833 72.202 5.941C71.786 4.75367 71.188 3.718 70.408 2.834C69.628 1.95 68.6747 1.25667 67.548 0.754C66.4213 0.251333 65.1387 0 63.7 0C62.2787 0 61.0003 0.251333 59.865 0.754C58.7297 1.25667 57.772 1.95 56.992 2.834C56.212 3.718 55.614 4.75367 55.198 5.941C54.782 7.12833 54.574 8.41533 54.574 9.802C54.574 11.154 54.782 12.415 55.198 13.585C55.614 14.755 56.212 15.7733 56.992 16.64C57.772 17.5067 58.7297 18.187 59.865 18.681C61.0003 19.175 62.2787 19.422 63.7 19.422ZM63.7 16.016C62.7813 16.016 62.0013 15.8383 61.36 15.483C60.7187 15.1277 60.1987 14.6553 59.8 14.066C59.4013 13.4767 59.111 12.8137 58.929 12.077C58.747 11.3403 58.656 10.582 58.656 9.802C58.656 8.98733 58.747 8.19867 58.929 7.436C59.111 6.67333 59.4013 5.993 59.8 5.395C60.1987 4.797 60.7187 4.32033 61.36 3.965C62.0013 3.60967 62.7813 3.432 63.7 3.432C64.6187 3.432 65.3987 3.60967 66.04 3.965C66.6813 4.32033 67.2013 4.797 67.6 5.395C67.9987 5.993 68.289 6.67333 68.471 7.436C68.653 8.19867 68.744 8.98733 68.744 9.802C68.744 10.582 68.653 11.3403 68.471 12.077C68.289 12.8137 67.9987 13.4767 67.6 14.066C67.2013 14.6553 66.6813 15.1277 66.04 15.483C65.3987 15.8383 64.6187 16.016 63.7 16.016Z" id="LOGO" fill="#B57AD2" stroke="none" />
</svg>