<?xml version="1.0" encoding="utf-8"?>
<svg width="860px" height="774px" viewBox="0 0 860 774" version="1.1" xmlns:xlink="http://www.w3.org/1999/xlink" xmlns="http://www.w3.org/2000/svg">
  <defs>
    <linearGradient x1="0.4932598" y1="0" x2="0.4932598" y2="1.3698381" id="gradient_1">
      <stop offset="0" stop-color="#B57AD2" stop-opacity="0.7764706" />
      <stop offset="1" stop-color="#FFF4E5" stop-opacity="0" />
    </linearGradient>
    <path d="M0 0L202.632 0L202.632 99.23L0 99.23L0 0Z" transform="translate(0.35810688 0.1072373)" id="path_1" />
    <clipPath id="mask_1">
      <use xlink:href="#path_1" />
    </clipPath>
  </defs>
  <g id="Image" transform="translate(0.4249878 -167)">
    <path d="M387.749 893.305C639.76 867.683 848.349 683.057 939.747 447.722C1031.14 212.386 687.03 11.9155 439.179 0.430156C191.328 -11.0552 0 209.135 0 459.934C0 710.734 135.737 918.927 387.749 893.305Z" transform="matrix(-1 0 0 1 982 0)" id="Oval" fill="url(#gradient_1)" fill-rule="evenodd" stroke="none" />
    <g id="image" transform="translate(0 304.68564)">
      <path d="M1.10236 0.00345877C1.22263 -0.0663942 1.97188 0.922918 3.08031 2.87068C4.19361 4.81194 5.57834 7.76039 6.86555 11.5649C9.50335 19.148 11.1595 30.3424 10.1778 42.5504C9.2043 54.7568 6.38122 65.4719 4.20336 73.0989C1.97513 80.7291 0.335235 85.3605 0.0524392 85.2825C-0.259612 85.1964 0.847193 80.4042 2.67562 72.6993C4.45691 64.9959 6.99882 54.3377 7.95122 42.3815C8.90851 30.4285 7.54653 19.5493 5.3573 12.0279C3.23146 4.46917 0.751303 0.185401 1.10236 0.00345877" transform="translate(573.8064 549.805)" id="Fill-1" fill="#FFFFFF" fill-rule="evenodd" stroke="none" />
      <path d="M0.0193352 0.00166316C0.159108 -0.0600674 1.066 1.59853 2.57912 4.65744C4.09061 7.71635 6.21482 12.1739 8.72748 17.7362C13.7121 28.8607 20.4212 44.433 25.2872 62.5119C27.6796 71.5555 29.3098 80.3472 30.1354 88.4209C30.9675 96.493 31.052 103.828 30.636 109.949C30.2329 116.073 29.4593 120.987 28.7149 124.329C27.9787 127.677 27.3952 129.48 27.2636 129.451C26.8507 129.371 28.6727 122.001 29.0595 109.875C29.5405 97.7747 27.951 80.9629 23.1289 63.087C18.3181 45.2046 11.8837 29.6242 7.27774 18.3616C4.9585 12.7263 3.08295 8.16471 1.78437 5.01158C0.516665 1.84546 -0.122062 0.0650182 0.0193352 0.00166316" transform="translate(582.4142 488.71567)" id="Fill-3" fill="#FFFFFF" fill-rule="evenodd" stroke="none" />
      <path d="M19.3445 0.011277C19.6029 0.289064 17.0707 2.70305 13.7845 7.18501C12.9686 8.31078 12.0828 9.54214 11.2539 10.9489C10.347 12.3038 9.5588 13.8584 8.68116 15.4634C7.0494 18.7351 5.50052 22.4536 4.30596 26.5018C3.1634 30.5646 2.49704 34.5365 2.13786 38.1754C2.02897 39.9997 1.86969 41.7362 1.9152 43.364C1.86969 44.9966 1.96396 46.5122 2.05497 47.8995C2.45316 53.4407 3.31455 56.831 2.94724 56.9301C2.72458 57.0064 1.30735 53.7314 0.484973 48.0604C0.288317 46.6438 0.0997868 45.0875 0.0640311 43.403C-0.0627392 41.72 0.0282754 39.9201 0.0851595 38.0243C0.34195 34.2457 0.972551 30.1017 2.16062 25.8845C3.39906 21.6803 5.06821 17.8368 6.86412 14.5001C7.82302 12.8626 8.70229 11.2901 9.7067 9.93364C10.6315 8.52522 11.6213 7.30685 12.5411 6.21194C16.2549 1.84695 19.1982 -0.170666 19.3445 0.011277" transform="translate(284.60904 440.34943)" id="Fill-5" fill="#FFFFFF" fill-rule="evenodd" stroke="none" />
      <path d="M11.8334 0.0452671C12.0203 0.344173 10.6095 1.42283 8.7665 3.48593C7.8336 4.50448 6.85031 5.82519 5.88328 7.35546C4.95688 8.91172 4.06949 10.697 3.37225 12.6659C2.70589 14.6445 2.30445 16.5972 2.07529 18.3955C1.89164 20.1954 1.851 21.8394 1.95827 23.2186C2.13705 25.977 2.584 27.6973 2.25082 27.8175C2.01191 27.9182 1.00749 26.3441 0.393144 23.4281C0.0729675 21.9742 -0.0586787 20.1938 0.0242096 18.2217C0.154231 16.256 0.531291 14.1003 1.26103 11.9381C2.02003 9.78569 3.0537 7.85743 4.16375 6.22807C5.31281 4.62307 6.51551 3.30399 7.66294 2.35691C9.94481 0.436769 11.7066 -0.183786 11.8334 0.0452671" transform="translate(298.06342 459.87427)" id="Fill-7" fill="#FFFFFF" fill-rule="evenodd" stroke="none" />
      <path d="M0.0177094 0.00704095C0.133103 -0.0936772 1.13264 0.889137 2.84729 2.7638C3.71843 3.69138 4.74722 4.85938 5.83614 6.3003C6.93644 7.72823 8.2594 9.31373 9.5011 11.2192C10.1415 12.1598 10.8143 13.1443 11.5132 14.1709C12.2055 15.2041 12.8329 16.3348 13.5317 17.4768C14.962 19.7446 16.2443 22.3047 17.6388 24.9754C20.2717 30.3931 22.7892 36.5418 24.7948 43.207C26.7354 49.8918 27.9673 56.4222 28.7036 62.3987C28.9847 65.3991 29.3 68.2452 29.3325 70.924C29.3667 72.2626 29.4544 73.5524 29.4349 74.7968C29.4073 76.0379 29.378 77.2287 29.352 78.3658C29.3455 80.6433 29.0969 82.6902 28.9506 84.4885C28.8189 86.2884 28.5914 87.8268 28.3639 89.0777C27.9446 91.5842 27.6406 92.9521 27.4879 92.9309C27.0945 92.879 27.8357 87.3248 27.7739 78.3495C27.7528 77.227 27.7333 76.0541 27.7121 74.8293C27.6861 73.606 27.5561 72.3357 27.483 71.0215C27.3725 68.3882 26.9922 65.5957 26.6622 62.6538C25.8252 56.7942 24.5575 50.4019 22.6527 43.8406C20.6829 37.2988 18.2726 31.2427 15.7876 25.8689C14.4663 23.221 13.2652 20.6705 11.9276 18.3995C11.2726 17.2558 10.6908 16.1203 10.0488 15.079C9.40034 14.041 8.77949 13.0435 8.18627 12.0916C3.35762 4.52311 -0.286214 0.265334 0.0177094 0.00704095" transform="translate(227.37482 257.62848)" id="Fill-9" fill="#FFFFFF" fill-rule="evenodd" stroke="none" />
      <path d="M0.0242769 0.00835267C0.214432 -0.160594 2.77909 2.23715 6.04099 6.85882C7.68251 9.15909 9.41179 12.0588 11.0956 15.402C12.7306 18.7679 14.2908 22.5903 15.5358 26.7328C16.7433 30.8866 17.5105 34.9446 17.9688 38.6582C18.3719 42.3799 18.497 45.7523 18.3686 48.5756C18.1427 54.2256 17.2927 57.6322 17.0424 57.5932C16.6832 57.5493 16.9709 54.1005 16.7888 48.574C16.7157 45.8124 16.4313 42.5326 15.9291 38.9262C15.3716 35.3263 14.5655 31.4016 13.3953 27.3663C12.1845 23.3425 10.7266 19.6094 9.23788 16.2857C7.69876 12.9831 6.15476 10.0769 4.71478 7.71654C1.86245 2.97954 -0.252018 0.240654 0.0242769 0.00835267" transform="translate(252.65422 268.084)" id="Fill-11" fill="#FFFFFF" fill-rule="evenodd" stroke="none" />
      <path d="M56.0585 3.967L54.1147 0L0 41.327L23.6085 79.5544L77.4762 34.1581L56.0585 3.967Z" transform="translate(108.07741 446.76187)" id="Fill-13" fill="#B57AD2" fill-rule="evenodd" stroke="none" />
      <path d="M0 0L20.74 35.8492L22.0662 35.2578L3.5967 1.7382L0 0Z" transform="translate(110.34514 488.97256)" id="Fill-15" fill="#D7D4D4" fill-rule="evenodd" stroke="none" />
      <path d="M52.7218 0L0 39.0283C0 39.0283 0.221035 39.8665 1.52937 40.3831C2.83933 40.8997 3.5967 40.7681 3.5967 40.7681L59.0246 2.85097C59.0246 2.85097 55.8293 2.10858 54.6705 1.24436C53.5101 0.376881 52.7218 0 52.7218 0" transform="translate(110.34514 449.9436)" id="Fill-17" fill="#B57AD2" fill-rule="evenodd" stroke="none" />
      <path d="M57.7732 0L0 38.5702L18.7636 74.114L21.7866 79.0362L79.5614 36.2975C79.5614 36.2975 73.4764 27.2199 69.8228 21.7389C66.1693 16.2579 58.997 3.33182 58.6069 2.50333C58.2152 1.67485 57.7732 0 57.7732 0" transform="translate(112.9519 451.2651)" id="Fill-19" fill="#B57AD2" fill-rule="evenodd" stroke="none" />
      <path d="M17.9851 3.33182L19.6169 0L65.0592 34.7039L45.2343 66.8054L0 28.6836L17.9851 3.33182Z" transform="translate(629.1786 181.65144)" id="Fill-21" fill="#775298" fill-rule="evenodd" stroke="none" />
      <path d="M18.5296 0L1.11493 30.1034L0 29.6079L15.5099 1.46041L18.5296 0Z" transform="translate(673.8042 217.0971)" id="Fill-23" fill="#D7D4D4" fill-rule="evenodd" stroke="none" />
      <path d="M5.29347 0L49.5656 32.774C49.5656 32.774 49.3786 33.4774 48.2816 33.9112C47.1813 34.3449 46.5442 34.2344 46.5442 34.2344L0 2.39449C0 2.39449 2.6833 1.77232 3.65683 1.04455C4.63037 0.316775 5.29347 0 5.29347 0" transform="translate(642.76855 184.32259)" id="Fill-25" fill="#F5F3F3" fill-rule="evenodd" stroke="none" />
      <path d="M18.2972 0L66.8112 32.3874L51.0559 62.2357L48.5173 66.3684L0 30.4786C0 30.4786 5.11144 22.8549 8.17831 18.2527C11.2484 13.6506 17.27 2.79574 17.5967 2.10046C17.925 1.40681 18.2972 0 18.2972 0" transform="translate(623.33374 185.4339)" id="Fill-27" fill="#B57AD2" fill-rule="evenodd" stroke="none" />
      <path d="M2.19621 0C2.19621 0 -1.23472 2.37338 0.479933 6.33062C2.19621 10.2879 9.71792 22.0264 19.8791 21.63C20.2951 21.6154 7.07849 0 7.07849 0L2.19621 0Z" transform="translate(97.3333 122.521416)" id="Fill-29" fill="#FF7B5B" fill-rule="evenodd" stroke="none" />
      <path d="M49.1113 9.55689C49.1113 9.55689 36.4051 -1.78852 32.337 0.243708C27.367 2.72755 -1.07996 30.5859 0.031719 43.7101C0.488417 49.0855 6.74892 44.4801 17.9047 32.9138C29.0638 21.349 43.1141 26.3054 43.1141 26.3054L49.1113 9.55689Z" transform="translate(34.874172 329.36795)" id="Fill-31" fill="#B57AD2" fill-rule="evenodd" stroke="none" />
      <path d="M49.5466 9.19785L34.2074 0C34.2074 0 -5.55294 37.2576 0.658803 42.2253C5.37043 45.9925 8.13988 42.6135 19.2973 31.0472C30.4531 19.4841 44.588 26.1331 44.588 26.1331L49.5466 9.19785Z" transform="translate(65.31004 348.8607)" id="Fill-33" fill="#B57AD2" fill-rule="evenodd" stroke="none" />
      <path d="M60.9765 0L63.8532 40.8266L0 24.2L60.9765 0Z" transform="translate(147.581 235.4829)" id="Fill-35" fill="#F3A683" fill-rule="evenodd" stroke="none" />
      <path d="M8.22545 0C8.22545 0 64.0792 3.51864 71.5164 1.03805C71.5164 1.03805 82.4316 108.217 63.0097 119.78C43.5863 131.346 0 114.411 0 114.411L11.7685 91.2816L37.1421 89.6295L37.1421 48.3269L35.3218 48.7395L8.22545 0Z" transform="translate(139.35556 261.08755)" id="Fill-37" fill="#112129" fill-rule="evenodd" stroke="none" />
      <path d="M10.4084 73.1084C10.4084 73.1084 -3.64036 78.8916 0.905492 92.9353C0.905492 92.9353 48.8621 130.521 72.1976 121.846C85.2712 116.987 99.315 79.9134 109.14 48.2391L143.714 1.03805C143.714 1.03805 127.408 1.85354 121.968 1.83242C111.571 1.79343 80.423 0 80.423 0C80.423 0 64.1525 85.0874 58.3552 87.1521C52.5579 89.2152 10.4084 73.1084 10.4084 73.1084" transform="translate(67.158646 261.08737)" id="Fill-39" fill="#22343D" fill-rule="evenodd" stroke="none" />
      <path d="M0 119.789C0 119.789 33.4739 88.3974 39.2582 80.1353C45.0425 71.8748 57.4432 44.2016 72.7288 32.6369L65.2916 16.9411C65.2916 16.9411 69.8391 14.4638 72.7288 21.0705C72.7288 21.0705 83.4718 -0.405171 85.9519 0.00582475C88.4337 0.418444 80.9949 16.5285 80.9949 16.5285C80.9949 16.5285 91.3283 1.65793 94.2196 2.07217C97.1093 2.48479 86.7808 18.7881 86.7808 18.7881C86.7808 18.7881 98.3494 5.37638 100.004 7.02848C101.657 8.68059 90.9122 18.7881 90.9122 18.7881C90.9122 18.7881 102.482 12.1489 103.723 14.3371C104.963 16.5285 92.1523 22.31 92.1523 22.31C92.1523 22.31 90.9122 31.81 83.0622 35.9395C83.0622 35.9395 67.5166 77.9195 53.4662 91.5489L8.33109 138.435L0 119.789Z" transform="translate(160.59657 34.580482)" id="Fill-41" fill="#FFC6B2" fill-rule="evenodd" stroke="none" />
      <path d="M120.639 0C120.639 0 88.9217 33.1623 80.6036 38.8659C72.2839 44.5678 44.4838 56.7043 32.7722 71.8771L17.1388 64.2956C17.1388 64.2956 14.618 68.8149 21.2019 71.7666C21.2019 71.7666 -0.386422 82.3046 0.00526619 84.7885C0.393704 87.2707 16.5797 79.9865 16.5797 79.9865C16.5797 79.9865 1.60615 90.1753 1.99296 93.0685C2.37977 95.9617 18.7852 85.7892 18.7852 85.7892C18.7852 85.7892 5.25973 97.2272 6.898 98.8939C8.53301 100.562 18.7478 89.9202 18.7478 89.9202C18.7478 89.9202 11.9964 101.422 14.1775 102.681C16.3554 103.94 22.26 91.1906 22.26 91.1906C22.26 91.1906 31.7742 90.0437 35.982 82.2332C35.982 82.2332 75.7635 66.4123 89.5328 52.4969L139.038 17.4356L120.639 0Z" transform="translate(9.716762E-05 170.63887)" id="Fill-43" fill="#FFC6B2" fill-rule="evenodd" stroke="none" />
      <path d="M16.0413 10.694L0 26.3898L4.06803 44.0837C4.06803 44.0837 19.8721 82.0074 22.2612 91.2588C25.9749 105.645 19.968 127.581 19.968 127.581C19.968 127.581 46.7604 125.357 71.1393 124.532C95.5166 123.705 103.492 115.855 103.492 115.855C103.492 115.855 82.3552 45.4921 67.762 25.8228C53.1672 6.15681 47.8591 0 47.8591 0L26.3715 4.69477L16.0413 10.694Z" transform="translate(116.48781 146.72774)" id="Fill-45" fill="#FFFFFF" fill-rule="evenodd" stroke="none" />
      <path d="M24.5252 35.6006L41.2394 24.9261C41.2394 24.9261 43.7926 13.4897 23.6362 0L0 14.8039L24.5252 35.6006Z" transform="translate(155.08257 134.63066)" id="Fill-47" fill="#FFFFFF" fill-rule="evenodd" stroke="none" />
      <path d="M27.7757 0.333679C18.6125 1.61865 1.86742 24.8309 0 24.7871C0 24.7871 11.7848 44.0096 21.1203 44.6334C21.1203 44.6334 62.202 -4.49267 27.7757 0.333679" transform="translate(92.09248 171.54274)" id="Fill-49" fill="#FFFFFF" fill-rule="evenodd" stroke="none" />
      <path d="M51.0098 52.092C51.0098 52.092 37.6908 42.1452 38.1524 38.1799C38.2694 37.1808 40.1157 35.5596 40.5951 34.1203C43.1777 26.3763 30.7265 6.42275 23.0764 2.21696C17.0581 -1.0905 19.6959 -1.38291 7.03024 6.14009C-5.63542 13.6631 1.58074 26.672 7.23665 33.4006C12.5838 39.7605 18.7077 42.4847 24.2174 42.9445L32.0511 60.3362L51.0098 52.092Z" transform="translate(101.20416 104.680954)" id="Fill-51" fill="#FFC6B2" fill-rule="evenodd" stroke="none" />
      <path d="M0.673162 18.9911C-1.84599 12.8148 2.92415 5.03509 11.3284 1.60904C19.7358 -1.81862 28.5886 0.410173 31.1127 6.58322C33.6302 12.7579 25.1723 22.0402 20.451 23.9652C15.7296 25.8902 3.19069 25.1641 0.673162 18.9911" transform="translate(127.50792 151.58919)" id="Fill-53" fill="#FFC6B2" fill-rule="evenodd" stroke="none" />
      <path d="M4.81923 0.00484048C4.81923 0.00484048 0.499289 -0.233959 0.0198369 2.64301C-0.46124 5.5216 7.93811 5.5216 11.0586 3.36266L4.81923 0.00484048Z" transform="translate(103.62224 138.07689)" id="Fill-55" fill="#FFC6B2" fill-rule="evenodd" stroke="none" />
      <path d="M17.6811 48.7396C16.8604 43.5396 11.3166 39.6733 11.5929 34.6066C14.2502 34.6277 15.9567 31.3381 14.7475 28.5261C14.2713 27.4215 13.4652 26.476 12.95 25.386C12.4364 24.2976 12.2999 22.8713 13.0881 22.2556C13.462 21.9648 13.9674 21.9144 14.4517 21.8657C18.3914 21.4612 25.1411 22.6422 28.767 21.2988C32.2191 20.0203 35.9182 17.5332 35.559 13.3063C35.2453 9.6252 31.9932 6.64102 29.006 4.38623C27.2946 3.09314 22.4041 -0.287417 20.5595 0.0196108C17.7429 0.487463 17.0603 4.24328 16.8571 7.38666C14.8873 5.512 11.9813 5.81253 10.2683 7.33793C8.55529 8.86332 7.74429 11.2871 6.99829 13.6263C6.25067 15.9672 5.45917 18.3974 3.7689 19.9521C2.19402 21.4011 -0.297504 22.4976 0.0291732 24.962C0.417611 27.8991 4.25648 28.9436 6.03126 31.4486C5.59407 30.8345 5.22351 34.756 5.47542 35.4204C6.23279 37.4234 8.12297 38.749 9.48982 40.2809C12.4007 43.5461 13.8244 46.8341 17.6811 48.7396" transform="translate(92.92047 91.98045)" id="Fill-57" fill="#FF7B5B" fill-rule="evenodd" stroke="none" />
      <path d="M9.84257 0L0 5.08789C0 5.08789 11.8221 13.6652 9.84257 0" transform="translate(124.89187 128.82979)" id="Fill-59" fill="#FFFFFF" fill-rule="evenodd" stroke="none" />
      <path d="M5.67055 0.899262C6.20851 1.91944 5.41213 3.39447 3.89251 4.19372C2.37289 4.99297 0.705374 4.81428 0.167413 3.7941C-0.368923 2.77392 0.425829 1.30051 1.94545 0.499638C3.46669 -0.299609 5.13258 -0.120916 5.67055 0.899262" transform="translate(115.52288 129.94765)" id="Fill-61" fill="#FFB2A0" fill-rule="evenodd" stroke="none" />
      <path d="M5.67055 0.899262C6.20852 1.91944 5.41214 3.39447 3.89252 4.19372C2.37289 4.99297 0.705375 4.81428 0.167413 3.7941C-0.368924 2.77392 0.42583 1.29889 1.94545 0.499638C3.4667 -0.299609 5.13259 -0.120916 5.67055 0.899262" transform="translate(129.89474 120.13493)" id="Fill-63" fill="#FFB2A0" fill-rule="evenodd" stroke="none" />
      <path d="M6.50768 8.21671C6.46217 8.15985 6.64583 7.91781 7.07164 7.61078C7.47796 7.29725 8.18495 6.95936 8.70991 6.39404C9.22999 5.84659 9.4169 4.70457 8.62052 4.54375C7.79326 4.26271 6.85386 5.21141 5.77631 6.113C5.50977 6.33393 5.24648 6.55324 4.98481 6.76929C4.74102 6.99347 4.22744 7.32162 3.69435 7.25502C2.67857 7.09094 2.24625 6.41353 1.85619 5.9603C1.07606 4.95962 0.594983 3.91182 0.328441 3.00536C-0.199769 1.17294 0.0375191 -0.00968712 0.164289 5.97934e-05C0.341443 -0.00806264 0.399952 1.12908 1.07118 2.74057C1.40924 3.54144 1.91469 4.45115 2.65094 5.31051C3.01012 5.74587 3.46194 6.15199 3.78374 6.16499C3.91864 6.17148 4.02428 6.126 4.27782 5.91319C4.53624 5.69713 4.79628 5.47783 5.05957 5.2569C5.60241 4.81829 6.07211 4.3748 6.69296 3.96218C7.29593 3.55606 8.15569 3.29939 8.92607 3.56093C9.74845 3.77699 10.2311 4.73544 10.0881 5.40148C9.99549 6.08051 9.65743 6.58085 9.27387 6.94636C8.46287 7.62377 7.738 7.78785 7.2813 7.99253C6.81323 8.1696 6.55644 8.28007 6.50768 8.21671" transform="translate(121.35598 120.25227)" id="Fill-65" fill="#FF7B5B" fill-rule="evenodd" stroke="none" />
      <path d="M0 2.06148C0 2.06148 6.27839 2.09721 9.68494 0C9.68494 0 6.80335 3.53813 1.03692 4.45435L0 2.06148Z" transform="translate(125.42171 145.5641)" id="Fill-67" fill="#FFA192" fill-rule="evenodd" stroke="none" />
      <path d="M3.81961 0.461606C3.76273 0.771883 2.88509 0.867728 1.95706 1.2771C1.01604 1.65723 0.336679 2.22093 0.0750126 2.04548C-0.193155 1.90415 0.250541 0.783255 1.52149 0.248798C2.79082 -0.288908 3.9025 0.169198 3.81961 0.461606" transform="translate(124.3249 119.02186)" id="Fill-69" fill="#22343D" fill-rule="evenodd" stroke="none" />
      <path d="M0.0698747 3.38467C-0.167414 3.20923 0.204771 2.1988 1.10842 1.18674C2.02344 0.153567 3.192 -0.190824 3.31552 0.0983344C3.44554 0.379371 2.73368 1.03404 1.93242 1.94213C1.11817 2.84697 0.326666 3.57636 0.0698747 3.38467" transform="translate(115.77092 124.165665)" id="Fill-71" fill="#22343D" fill-rule="evenodd" stroke="none" />
      <path d="M0.416607 5.85846C-0.0920992 5.48158 -0.488663 3.86847 1.4584 1.6949C3.42334 -0.527394 5.61907 -0.135893 5.88236 0.481412C6.16515 1.08735 5.43379 1.94995 3.70939 3.90421C1.95898 5.85197 0.967571 6.27108 0.416607 5.85846" transform="translate(110.6547 120.13253)" id="Fill-73" fill="#FF7B5B" fill-rule="evenodd" stroke="none" />
      <path d="M0.0850212 3.57071C-0.196149 3.04438 0.114276 1.51249 2.64643 0.445198C5.21434 -0.65783 6.92574 0.558912 6.90136 1.19084C6.89649 1.81951 5.92946 2.25975 3.6736 3.23119C1.40148 4.18477 0.388945 4.14416 0.0850212 3.57071" transform="translate(121.32197 113.85842)" id="Fill-75" fill="#FF7B5B" fill-rule="evenodd" stroke="none" />
      <path d="M65.6397 0.0230078C65.8054 0.187081 63.0783 3.25411 57.4191 6.59406C51.8298 9.93075 43.0355 13.2382 32.9199 13.3129C22.8043 13.3877 13.9612 10.2102 8.32321 6.95632C2.61692 3.70085 -0.155777 0.672802 0.00674946 0.50548C0.242412 0.208199 3.34341 2.76189 9.05783 5.55763C14.717 8.36475 23.2464 11.1507 32.902 11.0809C42.561 11.0078 51.0464 8.09671 56.665 5.20674C62.3355 2.32653 65.4008 -0.272649 65.6397 0.0230078" transform="translate(595.861 132.6443)" id="Fill-77" fill="#775298" fill-rule="evenodd" stroke="none" />
      <path d="M57.1435 10.4949C56.9891 10.8344 53.9694 9.58191 48.8823 8.44802C46.3469 7.8502 43.2703 7.38885 39.8442 6.96323C36.4052 6.5831 32.6037 6.28095 28.5893 5.99504C24.5733 5.714 20.7295 5.39073 17.2385 4.95862C13.7474 4.49564 10.6107 3.94494 8.0265 3.24641C2.83867 1.89321 -0.0998019 0.291463 0.00258957 0.0656589C0.137486 -0.275484 3.22711 0.778809 8.36456 1.70314C10.9276 2.19211 14.0205 2.57062 17.4644 2.91339C20.9165 3.22854 24.7293 3.48683 28.7502 3.76949C32.7744 4.0554 36.6246 4.42416 40.1124 4.9245C43.5986 5.47195 46.7256 6.10875 49.2838 6.921C54.4212 8.48863 57.2589 10.2821 57.1435 10.4949" transform="translate(542.64484 117.53941)" id="Fill-79" fill="#775298" fill-rule="evenodd" stroke="none" />
      <g id="Group-83" transform="translate(517.8551 41.86412)">
        <path d="M0 0L202.632 0L202.632 99.23L0 99.23L0 0Z" transform="translate(0.35810688 0.1072373)" id="Clip-82" fill="none" fill-rule="evenodd" stroke="none" />
        <g clip-path="url(#mask_1)">
          <path d="M20.3819 20.099C30.0262 18.0538 40.0183 19.8147 49.7422 21.4343C59.4678 23.0539 69.5639 24.5143 79.0716 21.9054C96.2377 17.196 109.269 -0.138866 127.07 0.000839623C134.4 0.0576967 141.309 3.18646 148.451 4.84181C157.318 6.89841 166.556 6.67748 175.539 8.14439C184.523 9.61131 193.804 13.2225 198.881 20.7748C204.904 29.7371 203.253 42.3788 196.932 51.1348C190.612 59.8924 180.49 65.224 170.119 68.2455C162.885 70.3525 155.178 71.5709 148.917 75.7637C142.585 80.0052 138.451 86.8313 132.551 91.6544C117.746 103.755 94.7067 100.287 79.4146 88.8083C75.5725 85.9248 72.0115 82.5784 67.6948 80.4682C50.1371 71.8779 24.8855 83.2493 9.76403 67.6201C-5.59144 51.7472 -3.40384 25.1414 20.3819 20.099" transform="translate(0.35810688 0.1072373)" id="Fill-81" fill="#B57AD2" fill-rule="evenodd" stroke="none" />
        </g>
      </g>
      <path d="M0 7.67245C0 7.67245 16.0868 42.1359 17.9689 35.755C19.846 29.3707 19.2252 14.0437 18.2175 11.8555C17.205 9.66732 10.6292 0 10.6292 0L0 7.67245Z" transform="translate(533.7764 361.79877)" id="Fill-84" fill="#FFB2A0" fill-rule="evenodd" stroke="none" />
      <path d="M3.39192 21.6629C4.88066 23.5685 3.886 21.5216 5.5714 24.2702C12.5763 24.0266 17.2782 18.1021 17.2782 18.1021C17.2782 18.1021 28.3966 18.3961 28.2682 16.411C28.1414 14.4226 17.6097 15.165 17.6097 15.165C17.6097 15.165 28.7509 11.6675 28.1398 9.92115C27.5319 8.17645 14.6696 13.7419 14.6696 13.7419C14.6696 13.7419 27.649 5.68936 25.7311 4.39789C23.815 3.10967 11.3265 10.1388 11.3265 10.1388C11.3265 10.1388 22.18 1.22852 20.5531 0.0800028C18.9294 -1.06851 3.87462 10.5287 3.87462 10.5287C4.09404 4.82351 0 5.02332 0 5.02332L0.169027 18.9533C0.169027 18.9533 2.70606 20.7857 3.39192 21.6629" transform="translate(646.70654 69.12233)" id="Fill-86" fill="#FFC6B2" fill-rule="evenodd" stroke="none" />
      <path d="M15.2761 27.738C12.8967 28.1766 14.7414 27.3498 11.6534 28.292C6.58093 23.4575 7.25378 15.8598 7.25378 15.8598C7.25378 15.8598 -1.25283 8.70227 0.157894 7.30358C1.57675 5.90165 8.95706 13.4458 8.95706 13.4458C8.95706 13.4458 2.95172 3.43568 4.56723 2.53572C6.18111 1.63575 12.1052 14.3327 12.1052 14.3327C12.1052 14.3327 7.74624 -0.302264 10.0379 0.00476417C12.3262 0.311792 16.9972 13.8535 16.9972 13.8535C16.9972 13.8535 14.7999 -0.00985621 16.7746 0.20945C18.7525 0.427131 22.3102 19.0909 22.3102 19.0909C25.9345 14.6788 28.8616 17.546 28.8616 17.546L19.674 27.6454C19.674 27.6454 16.3699 27.5382 15.2761 27.738" transform="translate(470.01547 0.00075908465)" id="Fill-88" fill="#FFC6B2" fill-rule="evenodd" stroke="none" />
      <path d="M16.6075 0.0353815C13.5309 -0.469834 6.09207 4.47185 2.37022 12.5261C0.286634 17.034 -1.14685 21.6134 1.24391 28.9447C2.37022 32.3935 4.72685 32.8256 5.25344 34.3705C5.91817 36.3264 3.71594 42.4913 3.71594 42.4913L12.4972 46.036C13.0677 41.8009 13.7146 37.5399 18.0329 35.701C19.6484 35.0122 21.3777 34.5768 22.9022 33.7029C27.0157 31.3457 29.2131 26.1896 30.9033 21.9676C32.1645 18.8144 24.321 1.29923 16.6075 0.0353815" transform="translate(526.3928 85.890724)" id="Fill-90" fill="#FFC6B2" fill-rule="evenodd" stroke="none" />
      <path d="M58.1914 5.90014L43.4795 0C43.4795 0 -0.181462 80.9271 0.000567602 103.381C0.180972 125.833 59.9662 170.787 59.9662 170.787L70.0493 162.077C70.0493 162.077 51.5912 129.907 41.7243 118.565C31.8557 107.219 58.1914 5.90014 58.1914 5.90014" transform="translate(474.3557 199.7232)" id="Fill-92" fill="#FFB2A0" fill-rule="evenodd" stroke="none" />
      <path d="M9.14859 17.2073C9.14859 17.2073 41.5742 1.82988 35.0585 0.471812C28.5428 -0.879761 13.3044 0.983526 11.2062 2.16615C9.10471 3.3504 0 10.685 0 10.685L9.14859 17.2073Z" transform="translate(596.44495 280.6041)" id="Fill-94" fill="#FFC6B2" fill-rule="evenodd" stroke="none" />
      <path d="M38.0595 0L15.7414 8.11594C15.7414 8.11594 -6.58318 106.261 1.93969 121.669C10.4593 137.084 34.3945 126.884 68.4827 108.288L97.0353 92.7095L87.5048 86.3691C87.5048 86.3691 54.2796 92.8768 44.949 99.365C44.949 99.365 49.8183 85.5747 56.3112 66.1085C62.8025 46.6407 67.2801 26.7683 38.0595 0" transform="translate(508.93878 204.92142)" id="Fill-96" fill="#FFC6B2" fill-rule="evenodd" stroke="none" />
      <path d="M0 11.2366C0 4.71589 2.09984 0 8.62364 0C15.1474 0 24.166 2.28565 24.166 8.80797C24.166 15.3319 19.0253 25.9219 12.4983 25.9219C5.97446 25.9219 0 17.7605 0 11.2366" transform="translate(519.52765 126.82143)" id="Fill-98" fill="#FFC6B2" fill-rule="evenodd" stroke="none" />
      <path d="M44.6331 99.8134C44.6331 99.8134 24.3466 77.8698 20.2883 56.3729C16.2284 34.8794 9.33406 0 9.33406 0L1.62382 2.21905C1.62382 2.21905 -2.02977 49.8864 1.62382 57.1852C5.27415 64.4856 23.1179 113.087 28.5512 125.851L44.6331 99.8134Z" transform="translate(480.04645 26.073668)" id="Fill-100" fill="#FFC6B2" fill-rule="evenodd" stroke="none" />
      <path d="M0 55.447C0 55.447 1.56025 48.6209 27.2134 39.3435C52.8665 30.0676 101.264 0 101.264 0L106.092 5.52163C106.092 5.52163 79.7954 35.8817 64.4969 41.2067C49.1983 46.5334 16.7044 67.5299 13.3613 69.2096C8.30508 71.752 8.36684 74.9506 0 55.447" transform="translate(546.4746 87.542305)" id="Fill-102" fill="#FFC6B2" fill-rule="evenodd" stroke="none" />
      <path d="M20.6116 0C20.6116 0 0 6.67664 0 38.0244C0 38.0244 0.0130021 80.9579 4.87091 88.7685C4.87091 88.7685 12.7681 90.791 22.6139 88.7685C32.9375 86.6469 42.9296 79.0346 42.9296 79.0346L59.1432 30.3828L57.2043 7.58798L35.1593 3.33345C35.1593 3.33345 41.4832 32.8715 18.6027 20.1729C14.156 17.7053 25.1444 0.947076 25.1444 0.947076L20.6116 0Z" transform="translate(504.068 125.887024)" id="Fill-104" fill="#22343D" fill-rule="evenodd" stroke="none" />
      <path d="M10.1562 38.5767L0 17.4275C0 17.4275 1.45623 4.5973 20.1012 0C20.1012 0 21.9865 6.46708 24.0538 8.93793C26.1196 11.4071 32.1363 14.0356 32.1363 14.0356L10.1562 38.5767Z" transform="translate(497.08347 112.80552)" id="Fill-106" fill="#22343D" fill-rule="evenodd" stroke="none" />
      <path d="M5.59902 32.0771L37.8946 25.4606C37.8946 25.4606 43.5099 13.8325 30.1957 0C30.1957 0 5.00417 1.52052 1.74389 1.79181C-1.466 2.05822 0.737857 4.52907 0.737857 4.52907L5.59902 32.0771Z" transform="translate(540.0375 127.80603)" id="Fill-108" fill="#22343D" fill-rule="evenodd" stroke="none" />
      <path d="M35.5932 6.82934C35.5932 6.82934 5.04643 63.2786 0 73.3651C0 73.3651 90.1191 114.742 126.702 64.9372C126.702 64.9372 105.892 20.9136 73.7218 4.15381L59.8437 0L36.1361 6.55805" transform="translate(473.294 197.36868)" id="Fill-110" fill="#22343D" fill-rule="evenodd" stroke="none" />
      <path d="M2.14047 1.91946C2.14047 1.91946 5.62017 -1.55857 7.76064 0.84892C9.90112 3.25641 0 6.73444 0 6.73444L2.14047 1.91946Z" transform="translate(553.97296 105.405045)" id="Fill-112" fill="#FFC6B2" fill-rule="evenodd" stroke="none" />
      <path d="M97.073 4.14207C97.1072 4.26228 95.7631 4.84385 93.1968 5.45303C90.637 6.06871 86.8388 6.62753 82.1206 6.72338C77.4058 6.8176 71.7986 6.39848 65.6616 5.56674C59.5198 4.75288 52.8481 3.55725 45.8286 2.79212C38.8204 2.04323 32.0821 1.90677 26.1141 2.8701C20.1446 3.81717 14.9779 5.77143 11.0285 8.05383C7.07909 10.3541 4.33077 12.9062 2.64375 14.8377C0.946981 16.7708 0.183108 18.0054 0.0108305 17.9015C-0.0834346 17.8527 0.426897 16.4622 1.96439 14.2951C3.49214 12.1345 6.18845 9.28357 10.2093 6.70551C14.227 4.14369 19.5676 1.94251 25.7728 0.841111C31.9862 -0.276536 38.9358 -0.190438 46.0658 0.573071C53.2024 1.3512 59.8822 2.61505 65.9525 3.53126C72.0213 4.46534 77.5065 5.03716 82.1255 5.14438C91.3846 5.40267 96.9885 3.76031 97.073 4.14207" transform="translate(522.68835 55.747734)" id="Fill-114" fill="#775298" fill-rule="evenodd" stroke="none" />
      <path d="M4.36663 8.66846C4.35688 8.80491 3.36547 8.90076 1.85235 8.39879C1.47854 8.26721 1.03647 8.09501 0.625284 7.71813C0.422126 7.52969 0.233596 7.27952 0.118203 6.97899C-0.0475732 6.55825 -0.0345712 6.08065 0.12958 5.71676C0.178338 5.64366 0.175087 5.46984 0.270977 5.46659L0.565149 5.45685C0.753679 5.43085 0.976339 5.49258 1.19412 5.5332C1.59394 5.60955 1.72233 5.59818 2.00675 5.61767C2.50571 5.62904 3.02254 5.57706 3.53937 5.46334C5.65221 5.01823 7.06618 3.48147 7.70003 2.21762C8.36476 0.945644 8.42327 -0.0111796 8.60042 0.000191818C8.72557 -0.0160531 8.97261 1.00088 8.42327 2.53602C8.14373 3.28815 7.65777 4.15076 6.87278 4.90777C6.09265 5.66316 5.01185 6.28371 3.78478 6.55175C3.17206 6.68821 2.55609 6.74019 1.96287 6.70933C1.70445 6.69633 1.29814 6.64435 1.1795 6.61835C1.0706 6.60048 1.08361 6.57612 1.06248 6.58911C1.04948 6.60211 1.04297 6.62323 1.0446 6.65409C1.08848 6.8003 1.16812 6.94 1.28026 7.06509C1.50617 7.32013 1.83448 7.5102 2.15465 7.6694C3.46298 8.31107 4.39101 8.50114 4.36663 8.66846" transform="translate(534.02686 96.68164)" id="Fill-116" fill="#FF7B5B" fill-rule="evenodd" stroke="none" />
      <path d="M0 0L11.8969 4.68502C11.8969 4.68502 1.44161 11.8912 0 0" transform="translate(531.1489 105.72617)" id="Fill-118" fill="#FFFFFF" fill-rule="evenodd" stroke="none" />
      <path d="M4.45762 2.98214C4.03505 3.78463 2.72508 3.92434 1.53051 3.29566C0.335934 2.66861 -0.289795 1.50873 0.13115 0.707859C0.553721 -0.0946363 1.86531 -0.235967 3.05989 0.392709C4.25446 1.02139 4.88019 2.17964 4.45762 2.98214" transform="translate(543.66846 104.99832)" id="Fill-120" fill="#FFB2A0" fill-rule="evenodd" stroke="none" />
      <path d="M4.57937 2.76142C4.21856 3.59316 2.92323 3.83358 1.68479 3.2975C0.446349 2.76142 -0.267137 1.65352 0.0936687 0.821784C0.45285 -0.00995318 1.7498 -0.250377 2.98824 0.285703C4.22669 0.821784 4.94017 1.92968 4.57937 2.76142" transform="translate(530.2691 98.18241)" id="Fill-122" fill="#FFB2A0" fill-rule="evenodd" stroke="none" />
      <path d="M0 0C0 0 4.17042 3.49102 8.52124 2.36688C8.52124 2.36688 7.02113 4.61516 1.24657 3.78993C1.24657 3.78993 1.72603 1.31258 0 0" transform="translate(530.4418 118.76722)" id="Fill-124" fill="#FFA192" fill-rule="evenodd" stroke="none" />
      <path d="M1.88531 0.942204C1.88531 1.46204 1.46274 1.88441 0.942657 1.88441C0.422571 1.88441 0 1.46204 0 0.942204C0 0.422367 0.422571 0 0.942657 0C1.46274 0 1.88531 0.422367 1.88531 0.942204" transform="translate(545.0995 99.57017)" id="Fill-126" fill="#22343D" fill-rule="evenodd" stroke="none" />
      <path d="M1.88367 0.942204C1.88367 1.46204 1.4611 1.88441 0.941021 1.88441C0.42094 1.88441 0 1.46204 0 0.942204C0 0.422367 0.42094 0 0.941021 0C1.4611 0 1.88367 0.422367 1.88367 0.942204" transform="translate(537.38745 96.793106)" id="Fill-128" fill="#22343D" fill-rule="evenodd" stroke="none" />
      <path d="M3.38262 2.54745C3.0917 2.67091 2.52936 1.99025 1.67773 1.43955C0.843979 0.864481 -0.00114925 0.606188 0.000475997 0.291038C-0.0271532 -0.0111165 1.15278 -0.256414 2.29858 0.511968C3.446 1.27548 3.67353 2.45648 3.38262 2.54745" transform="translate(546.6305 95.45526)" id="Fill-130" fill="#775298" fill-rule="evenodd" stroke="none" />
      <path d="M0.000277007 0.861327C-0.0192262 0.567294 0.993314 0.196911 2.34878 0.232649C3.72863 0.26189 4.74767 0.93118 4.60628 1.21059C4.47625 1.49325 3.51572 1.37142 2.3049 1.34867C1.08758 1.31293 0.0197802 1.18135 0.000277007 0.861327" transform="translate(536.4188 92.570076)" id="Fill-132" fill="#775298" fill-rule="evenodd" stroke="none" />
      <path d="M0 17.8742C0 17.8742 4.94891 35.4317 10.0587 33.994C15.1685 32.558 11.3264 8.05421 11.3264 8.05421L6.22799 0C6.22799 0 11.0176 41.0167 0 17.8742" transform="translate(540.6671 365.6004)" id="Fill-134" fill="#22343D" fill-rule="evenodd" stroke="none" />
      <path d="M0 5.96773C0 5.96773 3.59833 2.04296 7.96052 1.38992C12.3243 0.735247 27.9187 -1.11829 30.2087 0.952928C32.5003 3.02415 17.5691 9.96884 17.5691 9.96884C17.5691 9.96884 22.7715 6.65488 20.6115 5.42352C16.7938 3.24183 0 5.96773 0 5.96773" transform="translate(603.0714 280.16928)" id="Fill-136" fill="#22343D" fill-rule="evenodd" stroke="none" />
      <path d="M0 1.33045L4.88228 11.2382L7.54608 9.75991L1.03529 0L0 1.33045Z" transform="translate(596.8839 289.50714)" id="Fill-138" fill="#22343D" fill-rule="evenodd" stroke="none" />
      <path d="M11.9847 0L0 10.7963L3.5512 13.7545L13.6116 2.81036L11.9847 0Z" transform="translate(530.30457 357.8271)" id="Fill-140" fill="#22343D" fill-rule="evenodd" stroke="none" />
      <path d="M40.4581 105.726C37.05 97.2718 35.74 87.8595 30.6546 80.2943C23.336 69.4086 9.27915 64.0072 3.34044 52.3109C0.818038 47.3432 0.0265357 41.6607 0.000531574 36.0904C-0.0482263 25.0699 3.25268 13.3541 11.769 6.35089C21.5547 -1.69682 36.2373 -1.58473 47.6987 3.82157C59.1568 9.22786 67.9121 19.0414 75.3558 29.2919C82.8011 39.5408 89.3184 50.5402 97.9875 59.777C104.415 66.6259 112.04 72.5325 116.881 80.5786C130.155 102.638 116.498 130.548 93.0646 138.509C72.4742 145.503 47.5817 123.4 40.4581 105.726" transform="translate(251.2734 144.62114)" id="Fill-142" fill="#22343D" fill-rule="evenodd" stroke="none" />
      <path d="M25.0302 4.47221C27.0683 6.14706 24.8449 4.98717 27.8094 6.91707C27.1479 14.3199 20.2974 18.9838 20.2974 18.9838C20.2974 18.9838 20.0081 30.7694 17.8075 30.5274C15.602 30.2886 17.0144 19.1787 17.0144 19.1787C17.0144 19.1787 12.5043 30.7873 10.5962 30.0481C8.68981 29.3122 15.5939 15.9914 15.5939 15.9914C15.5939 15.9914 5.91711 29.3041 4.58765 27.2053C3.25981 25.1081 11.7746 12.2616 11.7746 12.2616C11.7746 12.2616 1.26074 23.2789 0.0726728 21.4952C-1.11377 19.7164 12.6197 4.39424 12.6197 4.39424C6.26329 4.32438 6.71349 0 6.71349 0L22.1957 0.917835C22.1957 0.917835 24.0924 3.69896 25.0302 4.47221" transform="translate(237.3682 401.4517)" id="Fill-144" fill="#FFC6B2" fill-rule="evenodd" stroke="none" />
      <path d="M16.2429 29.4148C18.892 29.8794 16.8361 29.0021 20.2735 30.0012C25.9197 24.8743 25.1704 16.8185 25.1704 16.8185C25.1704 16.8185 34.6392 9.22887 33.0692 7.74571C31.4894 6.25931 23.2754 14.2567 23.2754 14.2567C23.2754 14.2567 29.9584 3.64388 28.1609 2.68868C26.3666 1.73511 19.7729 15.1989 19.7729 15.1989C19.7729 15.1989 24.6243 -0.319866 22.0727 0.00503122C19.5275 0.331553 14.3283 14.6904 14.3283 14.6904C14.3283 14.6904 16.7727 -0.00958917 14.5737 0.222713C12.3731 0.45339 8.81379 19.7117 8.81379 19.7117C3.62921 15.4945 0 18.1944 0 18.1944L11.3476 29.3157C11.3476 29.3157 15.0255 29.2036 16.2429 29.4148" transform="translate(394.0614 154.23286)" id="Fill-146" fill="#FFC6B2" fill-rule="evenodd" stroke="none" />
      <path d="M15.0509 0.0410482C19.8405 -0.706216 34.4468 8.7548 30.7298 27.9676C30.4194 29.5807 28.3114 33.1319 27.7864 34.6004C27.1233 36.4604 32.29 43.2687 32.29 43.2687L18.9515 47.5281C18.3827 43.501 19.34 37.6154 15.0298 35.8659C13.4175 35.2112 11.6915 34.797 10.1702 33.9668C6.06319 31.725 3.87072 26.8207 2.18369 22.8066C0.924117 19.8062 -0.0347877 16.58 0.000968071 13.3245C0.0887322 5.12732 7.35203 1.24317 15.0509 0.0410482" transform="translate(330.43814 247.972)" id="Fill-148" fill="#FFC6B2" fill-rule="evenodd" stroke="none" />
      <path d="M26.3032 9.55523C26.3032 2.63979 24.1091 0 16.8475 0C9.58579 0 0 2.63979 0 9.55523C0 16.4723 5.1277 25.1276 12.3926 25.1276C19.6527 25.1276 26.3032 16.4723 26.3032 9.55523" transform="translate(345.8963 291.0769)" id="Fill-150" fill="#FFC6B2" fill-rule="evenodd" stroke="none" />
      <path d="M0 105.843C0 105.843 22.5798 82.5743 27.0964 59.7795C31.6146 36.9863 39.2891 0 39.2891 0L47.8704 2.35226C47.8704 2.35226 51.9368 52.8998 47.8704 60.6405C43.8073 68.3828 20.7725 122.142 21.2243 135.903L0 105.843Z" transform="translate(366.46497 181.88147)" id="Fill-152" fill="#FFC6B2" fill-rule="evenodd" stroke="none" />
      <path d="M67.2923 0C67.2923 0 59.6146 1.28984 47.8721 27.9558C36.1296 54.6201 0 104.261 0 104.261L5.87207 109.666C5.87207 109.666 41.098 83.4336 47.8721 67.5218C54.6445 51.6099 63.2259 31.8269 67.2923 32.6847C71.3555 33.5473 88.5182 9.88988 67.2923 0" transform="translate(258.9229 298.99173)" id="Fill-154" fill="#FFC6B2" fill-rule="evenodd" stroke="none" />
      <path d="M23.615 47.4854L34.1288 18.4802C34.1288 18.4802 32.5068 4.87671 11.7555 0L0 16.9288L23.615 47.4854Z" transform="translate(363.05145 273.85406)" id="Fill-156" fill="#B57AD2" fill-rule="evenodd" stroke="none" />
      <path d="M22.4579 0C22.4579 0 10.0539 1.04454 0 23.1164C0 23.1164 11.0566 38.3736 19.1456 38.8886C19.1456 38.8886 49.1885 13.2217 22.4579 0" transform="translate(307.26254 296.76602)" id="Fill-158" fill="#B57AD2" fill-rule="evenodd" stroke="none" />
      <path d="M21.347 8.13543C21.347 8.13543 3.44151 44.6815 1.34818 37.9155C-0.741908 31.1463 -0.0511721 14.8917 1.07026 12.5719C2.19656 10.2505 9.51674 0 9.51674 0L21.347 8.13543Z" transform="translate(342.4548 550.37915)" id="Fill-160" fill="#FFC6B2" fill-rule="evenodd" stroke="none" />
      <path d="M13.1987 6.25752L29.5732 0C29.5732 0 78.1685 85.8184 77.967 109.629C77.7655 133.435 11.224 181.108 11.224 181.108L0 171.869C0 171.869 31.5398 125.519 42.5217 113.492C48.0134 107.476 8.69839 77.9981 2.74344 49.6346C-3.21151 21.271 13.1987 6.25752 13.1987 6.25752" transform="translate(351.97122 378.51004)" id="Fill-162" fill="#22343D" fill-rule="evenodd" stroke="none" />
      <path d="M32.1428 12.3916C32.1428 12.3916 -1.35058 37.0676 0.0422682 30.1424C1.43999 23.2107 9.87185 9.06465 11.9863 7.49052C14.104 5.91964 25.5394 0 25.5394 0L32.1428 12.3916Z" transform="translate(234.57503 526.9782)" id="Fill-164" fill="#FFC6B2" fill-rule="evenodd" stroke="none" />
      <path d="M60.5052 28.063L108.951 0C108.951 0 110.874 97.4822 99.2433 118.56C87.6146 139.638 5.53401 152.991 5.53401 152.991L0 139.885C0 139.885 50.6399 109.728 66.1871 103.826C81.736 97.9208 60.5052 28.063 60.5052 28.063" transform="translate(260.11438 387.0938)" id="Fill-166" fill="#22343D" fill-rule="evenodd" stroke="none" />
      <path d="M29.7182 0C29.7182 0 -5.95304 12.6239 0.866552 47.2596C7.68452 81.8936 19.05 88.3867 19.05 88.3867L39.5071 54.8362L60.0456 10.8987L39.5071 8.29463L29.7182 0Z" transform="translate(319.75388 367.89758)" id="Fill-168" fill="#22343D" fill-rule="evenodd" stroke="none" />
      <path d="M40.7973 0C40.7973 0 67.0599 14.7114 67.0599 47.9532C67.0599 47.9532 63.7232 85.8509 58.316 94.1309C58.316 94.1309 49.5266 96.2768 38.5674 94.1309C27.0768 91.8826 15.9568 83.8105 15.9568 83.8105L6.98212 37.4119L0 10.3204L3.78523 9.07276L23.537 6.90407C23.537 6.90407 20.6993 36.395 42.7541 21.7503C47.3991 18.6654 36.9714 3.28796 36.9714 3.28796L40.7973 0Z" transform="translate(325.66766 287.7249)" id="Fill-170" fill="#B57AD2" fill-rule="evenodd" stroke="none" />
      <path d="M0 55.0376L55.0638 87.144L86.0381 28.6657L34.4149 0L0 55.0376Z" transform="translate(382.53992 107.07124)" id="Fill-172" fill="#FFFFFF" fill-rule="evenodd" stroke="none" />
      <path d="M29.1539 81.1317L68.5356 56.7644L35.9995 0L0 23.3325L29.1539 81.1317Z" transform="translate(429.98907 360.90677)" id="Fill-174" fill="#FFFFFF" fill-rule="evenodd" stroke="none" />
      <path d="M0.0108565 0.00538119C0.114873 -0.0872146 1.33057 1.01581 3.25325 3.26573C5.16781 5.51889 7.7796 8.94493 10.4011 13.5682C13.0324 18.172 15.6361 24.0137 17.4954 30.7943C19.4197 37.5245 20.7102 45.0898 23.6681 52.3772C25.204 55.9771 27.0649 59.3284 29.2802 62.2915C31.5149 65.235 33.9934 67.818 36.5451 70.0711C41.7589 74.4572 47.2214 77.4739 52.0891 79.217C56.9519 80.9844 61.1174 81.7772 64.0136 82.0615C66.9066 82.3815 68.5416 82.4286 68.5432 82.6187C68.5513 82.7373 66.9212 82.9858 63.9502 82.9289C60.9809 82.9062 56.6593 82.3393 51.569 80.7083C46.4754 79.1 40.7204 76.124 35.2172 71.642C32.5177 69.3385 29.8945 66.6711 27.5314 63.6057C25.1878 60.5224 23.2082 56.9973 21.6008 53.2236C18.5193 45.6064 17.302 37.9745 15.5093 31.3336C13.7979 24.67 11.4186 18.9355 9.01317 14.322C6.62242 9.69545 4.24954 6.18818 2.56739 3.79693C0.875495 1.41056 -0.115914 0.117471 0.0108565 0.00538119" transform="translate(265.2285 200.148)" id="Fill-176" fill="#22343D" fill-rule="evenodd" stroke="none" />
      <path d="M0.113566 0.000522105C0.518256 -0.0612084 0.911569 5.35646 3.9443 13.3701C5.45905 17.3614 7.71166 21.9538 10.9476 26.5576C12.5647 28.8628 14.4256 31.1338 16.5319 33.3967C18.6237 35.6694 20.9023 37.9778 23.0557 40.5672C27.3741 45.7932 30.345 51.4415 33.1421 56.4271C35.9197 61.4614 38.1317 66.2504 39.2563 70.5341C40.4298 74.8049 40.498 78.4811 40.1259 80.9195C39.7374 83.3692 39.1279 84.6103 39.0272 84.5762C38.8338 84.5258 39.1491 83.2149 39.2596 80.8415C39.3555 78.4714 39.0532 75.0177 37.7416 70.9809C36.4739 66.9278 34.1937 62.3597 31.3478 57.4326C28.4581 52.5072 25.4611 46.9726 21.3362 41.9919C19.2656 39.4999 17.0195 37.1996 14.9148 34.8701C12.7987 32.552 10.8744 30.138 9.25078 27.7224C5.99376 22.8863 3.81916 18.0664 2.45719 13.8996C1.06434 9.73445 0.471123 6.21906 0.189953 3.79695C-0.0879666 1.36996 -0.0132046 0.0118935 0.113566 0.000522105" transform="translate(332.77725 162.59048)" id="Fill-178" fill="#22343D" fill-rule="evenodd" stroke="none" />
      <path d="M6.59019 8.16066C6.56906 8.00471 7.4662 7.86175 8.31297 6.86756C8.508 6.63851 8.70465 6.30387 8.7014 6.10893C8.69653 5.89937 8.55025 5.53548 8.29834 5.32592C8.03667 5.092 7.74575 4.97828 7.36219 5.01727C6.96562 5.04651 6.48292 5.24307 5.85232 5.33729C4.47085 5.52086 3.3933 4.74111 2.68469 4.10918C1.95657 3.44476 1.40073 2.7706 0.986288 2.16629C0.160655 0.949548 -0.0961361 0.0706986 0.0306343 0.00571906C0.176908 -0.0722565 0.674238 0.655515 1.60551 1.67569C2.07034 2.18254 2.65706 2.7641 3.34942 3.32455C4.03203 3.86876 4.86741 4.36422 5.70117 4.23264C6.14324 4.17578 6.65845 3.96947 7.2858 3.92724C7.92453 3.86388 8.63477 4.15791 9.02483 4.59653C9.43927 5.04489 9.67168 5.57285 9.62293 6.19827C9.49941 6.83832 9.15973 7.13723 8.87856 7.41664C7.66449 8.47906 6.55118 8.30524 6.59019 8.16066" transform="translate(343.18173 260.736)" id="Fill-180" fill="#FF7B5B" fill-rule="evenodd" stroke="none" />
      <path d="M10.5756 0L0 3.84354C0 3.84354 8.97306 11.6898 10.5756 0" transform="translate(345.70386 269.81204)" id="Fill-182" fill="#FFFFFF" fill-rule="evenodd" stroke="none" />
      <path d="M4.4568 0.706854C4.87937 1.50935 4.25364 2.66923 3.05907 3.29628C1.86451 3.92495 0.554546 3.78524 0.131978 2.98275C-0.29059 2.18188 0.335136 1.022 1.5297 0.39333C2.72427 -0.235344 4.03423 -0.0956391 4.4568 0.706854" transform="translate(340.1918 268.45084)" id="Fill-184" fill="#FFB2A0" fill-rule="evenodd" stroke="none" />
      <path d="M4.60413 0.847576C4.95031 1.68581 4.21894 2.78072 2.97236 3.29569C1.72416 3.81228 0.432077 3.55073 0.0858957 2.71249C-0.260285 1.87426 0.471083 0.779347 1.71929 0.264383C2.96586 -0.250582 4.25795 0.0093373 4.60413 0.847576" transform="translate(352.58157 261.88428)" id="Fill-186" fill="#FFB2A0" fill-rule="evenodd" stroke="none" />
      <path d="M0 0.406123C0 0.406123 3.53819 1.12577 8.04828 0C8.04828 0 5.82493 2.15895 2.19247 2.66092C2.19247 2.66092 1.37822 1.15664 0 0.406123" transform="translate(346.01672 283.71292)" id="Fill-188" fill="#FFA192" fill-rule="evenodd" stroke="none" />
      <path d="M1.55145 0.223492C1.94801 0.55976 1.99677 1.15432 1.66034 1.55069C1.32391 1.94707 0.730685 1.9958 0.332494 1.65953C-0.0640726 1.32489 -0.112831 0.73033 0.223601 0.332332C0.560032 -0.0640415 1.15488 -0.112776 1.55145 0.223492" transform="translate(348.08005 260.13516)" id="Fill-190" fill="#22343D" fill-rule="evenodd" stroke="none" />
      <path d="M1.55145 0.223492C1.94801 0.55976 1.99677 1.15432 1.66034 1.55069C1.32554 1.94707 0.730685 1.9958 0.332494 1.65953C-0.0640726 1.32327 -0.112831 0.73033 0.223601 0.332332C0.560032 -0.0640415 1.15488 -0.112776 1.55145 0.223492" transform="translate(340.9736 264.2217)" id="Fill-192" fill="#22343D" fill-rule="evenodd" stroke="none" />
      <path d="M3.96529 0.613595C3.87102 0.915749 2.98851 0.904378 2.01822 1.19841C1.03981 1.46158 0.297068 1.93918 0.0565289 1.73287C-0.192137 1.56067 0.383207 0.501505 1.71105 0.124624C3.03564 -0.257131 4.08393 0.334183 3.96529 0.613595" transform="translate(345.7083 255.81299)" id="Fill-194" fill="#22343D" fill-rule="evenodd" stroke="none" />
      <path d="M0.0698746 3.3838C-0.167413 3.20835 0.204771 2.19792 1.10842 1.18749C2.02181 0.154321 3.192 -0.19007 3.31389 0.0974643C3.44554 0.3785 2.73205 1.03317 1.9308 1.94126C1.11817 2.84609 0.326666 3.57711 0.0698746 3.3838" transform="translate(337.32697 260.45386)" id="Fill-196" fill="#22343D" fill-rule="evenodd" stroke="none" />
      <path d="M5.21802 1.35003C5.21802 1.35003 1.82611 -1.49769 0.1976 1.07875C-1.42928 3.65518 7.52426 5.01163 7.52426 5.01163L5.21802 1.35003Z" transform="translate(328.19028 270.3363)" id="Fill-198" fill="#FFC6B2" fill-rule="evenodd" stroke="none" />
      <path d="M17.6779 0C17.6779 0 12.8152 2.11346 11.5475 3.38218C10.2781 4.64928 -1.35061 24.7247 0.130003 27.2605C1.61062 29.7964 13.2719 21.1882 13.2719 21.1882C13.2719 21.1882 3.5138 23.0352 17.6779 0" transform="translate(234.172 531.3506)" id="Fill-200" fill="#B57AD2" fill-rule="evenodd" stroke="none" />
      <path d="M4.61887 0C4.61887 0 1.16519 3.73145 0.632103 5.44528C0.0990168 7.15587 -0.855012 30.3341 1.63651 31.8903C4.12642 33.4482 10.933 20.6586 10.933 20.6586C10.933 20.6586 2.79533 27.0299 4.61887 0.0536081" transform="translate(342.12158 557.89746)" id="Fill-202" fill="#B57AD2" fill-rule="evenodd" stroke="none" />
    </g>
  </g>
</svg>