<?xml version="1.0" encoding="utf-8"?>
<svg width="154px" height="154px" viewBox="0 0 154 154" version="1.1" xmlns:xlink="http://www.w3.org/1999/xlink" xmlns="http://www.w3.org/2000/svg">
  <g id="famous">
    <path d="M0 0L5.13333 0L5.13333 10.2667L0 10.2667L0 0Z" transform="translate(74.433334 15.4)" id="Rectangle" fill="#B57AD2" stroke="none" />
    <path d="M0 0L10.2666 0L10.2666 5.13328L0 5.13328L0 0Z" transform="matrix(0.70710677 -0.70710677 0.70710677 0.70710677 99.78892 28.981178)" id="Rectangle" fill="#B57AD2" stroke="none" />
    <path d="M0 0L10.2667 0L10.2667 5.13333L0 5.13333L0 0Z" transform="translate(130.9 148.86667)" id="Rectangle" fill="#B57AD2" stroke="none" />
    <path d="M0 0L10.2667 0L10.2667 5.13333L0 5.13333L0 0Z" transform="translate(130.9 123.2)" id="Rectangle" fill="#B57AD2" stroke="none" />
    <path d="M0 0L10.2667 0L10.2667 5.13333L0 5.13333L0 0Z" transform="translate(130.9 97.53333)" id="Rectangle" fill="#B57AD2" stroke="none" />
    <path d="M0 0L10.2664 0L10.2664 5.13321L0 5.13321L0 0Z" transform="matrix(0.9486233 -0.31640774 0.31640774 0.9486233 127.79145 73.61759)" id="Rectangle" fill="#B57AD2" stroke="none" />
    <path d="M0 0L10.2664 0L10.2664 5.13321L0 5.13321L0 0Z" transform="matrix(0.9486233 -0.31640774 0.31640774 0.9486233 119.81704 47.000942)" id="Rectangle" fill="#B57AD2" stroke="none" />
    <path d="M0 0L5.13328 0L5.13328 10.2666L0 10.2666L0 0Z" transform="matrix(0.7072068 -0.70700675 0.70700675 0.7072068 43.323864 25.356739)" id="Rectangle" fill="#B57AD2" stroke="none" />
    <path d="M0 0L10.2667 0L10.2667 5.13333L0 5.13333L0 0Z" transform="translate(12.833333 148.86667)" id="Rectangle" fill="#B57AD2" stroke="none" />
    <path d="M0 0L10.2667 0L10.2667 5.13333L0 5.13333L0 0Z" transform="translate(12.833333 123.2)" id="Rectangle" fill="#B57AD2" stroke="none" />
    <path d="M50.4857 0L42.5143 0C19.0721 0 0 18.8665 0 42.0572C0 44.2347 1.78445 46 3.98566 46L89.0143 46C91.2155 46 93 44.2345 93 42.0569C93 18.8667 73.9285 0 50.4857 0Z" transform="translate(31 103)" id="Path" fill="#B57AD2" stroke="none" />
    <path d="M25 0C11.215 0 0 11.3641 0 25.3323L0 26.6677C0 40.6359 11.215 52 25 52C38.785 52 50 40.6359 50 26.6677L50 25.3323C50 11.3641 38.785 0 25 0Z" transform="translate(52 60)" id="Path" fill="#B57AD2" stroke="none" />
    <path d="M0 0L10.2667 0L10.2667 5.13333L0 5.13333L0 0Z" transform="translate(12.833333 97.53333)" id="Rectangle" fill="#B57AD2" stroke="none" />
    <path d="M0 0L5.13321 0L5.13321 10.2664L0 10.2664L0 0Z" transform="matrix(0.3161078 -0.94872326 0.94872326 0.3161078 14.851495 75.24098)" id="Rectangle" fill="#B57AD2" stroke="none" />
    <path d="M0 0L5.13353 0L5.13353 10.2671L0 10.2671L0 0Z" transform="matrix(0.31628785 -0.9486633 0.9486633 0.31628785 22.813133 48.640865)" id="Rectangle" fill="#B57AD2" stroke="none" />
    <path d="M23.1 10.2667C18.8493 10.2622 15.4045 6.81739 15.4 2.56667C15.4 1.14922 14.2508 0 12.8333 0C11.4159 0 10.2667 1.14922 10.2667 2.56667C10.2622 6.81739 6.81739 10.2622 2.56667 10.2667C1.14922 10.2667 0 11.4159 0 12.8333C0 14.2508 1.14922 15.4 2.56667 15.4C6.81739 15.4045 10.2622 18.8493 10.2667 23.1C10.2667 24.5174 11.4159 25.6667 12.8333 25.6667C14.2508 25.6667 15.4 24.5174 15.4 23.1C15.4045 18.8493 18.8493 15.4045 23.1 15.4C24.5174 15.4 25.6667 14.2508 25.6667 12.8333C25.6667 11.4159 24.5174 10.2667 23.1 10.2667ZM12.8333 15.4074C12.1009 14.4324 11.2343 13.5658 10.2593 12.8333C11.2343 12.1009 12.1009 11.2343 12.8333 10.2593C13.5658 11.2343 14.4324 12.1009 15.4074 12.8333C14.4324 13.5658 13.5658 14.4324 12.8333 15.4074Z" transform="translate(128.33333 0)" id="Shape" fill="#B57AD2" stroke="none" />
    <path d="M23.1 10.2667C18.8493 10.2622 15.4045 6.81739 15.4 2.56667C15.4 1.14922 14.2508 0 12.8333 0C11.4159 0 10.2667 1.14922 10.2667 2.56667C10.2622 6.81739 6.81739 10.2622 2.56667 10.2667C1.14922 10.2667 0 11.4159 0 12.8333C0 14.2508 1.14922 15.4 2.56667 15.4C6.81739 15.4045 10.2622 18.8493 10.2667 23.1C10.2667 24.5174 11.4159 25.6667 12.8333 25.6667C14.2508 25.6667 15.4 24.5174 15.4 23.1C15.4045 18.8493 18.8493 15.4045 23.1 15.4C24.5174 15.4 25.6667 14.2508 25.6667 12.8333C25.6667 11.4159 24.5174 10.2667 23.1 10.2667ZM12.8333 15.4074C12.1009 14.4324 11.2343 13.5658 10.2593 12.8333C11.2343 12.1009 12.1009 11.2343 12.8333 10.2593C13.5658 11.2343 14.4324 12.1009 15.4074 12.8333C14.4324 13.5658 13.5658 14.4324 12.8333 15.4074Z" id="Shape" fill="#B57AD2" stroke="none" />
  </g>
</svg>