<?xml version="1.0" encoding="utf-8"?>
<svg width="154px" height="154px" viewBox="0 0 154 154" version="1.1" xmlns:xlink="http://www.w3.org/1999/xlink" xmlns="http://www.w3.org/2000/svg">
  <g id="reputation">
    <path d="M56.1129 0L47.253 0C21.1979 0 0 21.1973 0 47.253C0 49.6996 1.98335 51.6829 4.42991 51.6829L98.936 51.6829C101.383 51.6829 103.366 49.6993 103.366 47.2527C103.366 21.1976 82.1686 0 56.1129 0Z" transform="translate(25.316757 102.10531)" id="Path" fill="#B57AD2" stroke="none" />
    <path d="M51.6829 0L47.253 0C21.1979 0 0 21.1973 0 47.253C0 49.6996 1.98335 51.6829 4.42991 51.6829L51.6829 51.6829L51.6829 0Z" transform="translate(25.316757 102.10531)" id="Path" fill="#B57AD2" stroke="none" />
    <path d="M28.0566 0C12.5862 0 0 12.5862 0 28.0566L0 29.5355C0 45.0059 12.5862 57.5921 28.0566 57.5921C43.527 57.5921 56.1131 45.0059 56.1131 29.5355L56.1131 28.0566C56.1131 12.5862 43.527 0 28.0566 0Z" transform="translate(48.943127 53.373634)" id="Path" fill="#B57AD2" stroke="none" />
    <path d="M0 28.0563L0 29.5352C0 45.0056 12.5862 57.5918 28.0566 57.5918L28.0566 0C12.5859 0 0 12.5862 0 28.0563Z" transform="translate(48.943424 53.373634)" id="Path" fill="#B57AD2" stroke="none" />
    <path d="M44.5824 14.3073L33.9311 10.9508L27.4472 1.85793C26.6161 0.692398 25.2722 0 23.8402 0C22.4082 0 21.0646 0.692398 20.2332 1.85793L13.7496 10.9508L3.09862 14.3073C1.73277 14.738 0.659588 15.8018 0.216838 17.1638C-0.225612 18.5251 0.0174196 20.0173 0.869232 21.1681L7.51349 30.1443L7.41423 41.3117C7.4016 42.7434 8.08167 44.093 9.24027 44.9352C10.007 45.4923 10.9204 45.781 11.8444 45.781C12.3167 45.781 12.7913 45.7055 13.2506 45.5518L23.8405 42.0065L34.4304 45.5515C35.7884 46.0072 37.2821 45.7768 38.4404 44.9346C39.599 44.093 40.2794 42.7431 40.2665 41.3111L40.1672 30.1437L46.8115 21.1678C47.6636 20.017 47.9063 18.5251 47.4639 17.1632C47.0217 15.8012 45.9482 14.7374 44.5824 14.3073Z" transform="translate(53.159504 0.21175)" id="Path" fill="#B57AD2" stroke="none" />
    <path d="M20.2332 1.85793L13.7496 10.9508L3.09862 14.3073C1.73278 14.738 0.659588 15.8018 0.216838 17.1638C-0.225612 18.5251 0.0174196 20.0173 0.869232 21.1681L7.51349 30.1443L7.41423 41.3117C7.4016 42.7434 8.08167 44.093 9.24028 44.9352C10.007 45.4923 10.9204 45.781 11.8444 45.781C12.3167 45.781 12.7913 45.7055 13.2506 45.5518L23.8405 42.0065L23.8405 0C22.4085 0 21.0646 0.691797 20.2332 1.85793Z" transform="translate(53.159504 0.21175)" id="Path" fill="#B57AD2" stroke="none" />
    <path d="M47.4638 17.1632C47.0213 15.8015 45.9478 14.7374 44.582 14.307L33.931 10.9508L27.4474 1.85793C26.6163 0.692398 25.2724 0 23.8404 0C22.4084 0 21.0648 0.692398 20.2334 1.85793L13.7498 10.9508L3.09882 14.307C1.73297 14.7374 0.659486 15.8012 0.217037 17.1632C-0.225713 18.5248 0.017318 20.017 0.869431 21.1678L7.51369 30.144L7.41443 41.3114C7.4015 42.7434 8.08187 44.093 9.24017 44.9349C10.3991 45.7771 11.8925 46.0057 13.2505 45.5521L23.8404 42.0071L34.4303 45.5521C34.8896 45.7061 35.3642 45.781 35.8365 45.781C36.7602 45.781 37.6739 45.492 38.4406 44.9349C39.5989 44.0933 40.2793 42.7434 40.2664 41.3114L40.1671 30.144L46.8114 21.1678C47.6635 20.017 47.9065 18.5248 47.4638 17.1632Z" transform="translate(106.319084 13.503875)" id="Path" fill="#B57AD2" stroke="none" />
    <path d="M44.5822 14.307L33.9312 10.9508L27.447 1.85793C26.6156 0.692398 25.272 0 23.84 0C22.408 0 21.0644 0.692398 20.2331 1.85793L13.7497 10.9508L3.09846 14.307C1.73261 14.7374 0.65942 15.8012 0.216971 17.1632C-0.225779 18.5248 0.0175533 20.017 0.869366 21.1678L7.51362 30.144L7.41437 41.3114C7.40173 42.7431 8.0818 44.0927 9.24041 44.9346C10.399 45.7768 11.893 46.0057 13.2507 45.5518L23.8406 42.0068L34.4305 45.5518C34.8898 45.7058 35.3645 45.7807 35.8367 45.7807C36.7604 45.7807 37.6742 45.4917 38.4409 44.9346C39.5992 44.093 40.2795 42.7431 40.2669 41.3114L40.1676 30.144L46.8119 21.1678C47.6637 20.0173 47.907 18.5251 47.4643 17.1632C47.0212 15.8012 45.9478 14.7374 44.5822 14.307Z" transform="translate(-0.000107941996 13.503875)" id="Path" fill="#B57AD2" stroke="none" />
  </g>
</svg>