<?xml version="1.0" encoding="utf-8"?>
<svg width="154px" height="154px" viewBox="0 0 154 154" version="1.1" xmlns:xlink="http://www.w3.org/1999/xlink" xmlns="http://www.w3.org/2000/svg">
  <g id="place">
    <path d="M154 77C154 103.614 140.498 127.075 119.969 140.907C115.17 144.138 109.987 146.844 104.506 148.943C95.964 152.209 86.6926 154 77 154C65.736 154 55.0346 151.58 45.3923 147.237C40.1751 144.883 35.2629 141.966 30.7403 138.562C12.0717 124.511 0 102.165 0 77C0 69.0894 1.19114 61.4586 3.40686 54.2771C13.1026 22.8423 42.3846 0 77 0C111.615 0 140.897 22.8423 150.593 54.2771C152.809 61.4586 154 69.0894 154 77Z" id="Path" fill="#FFFFFF" stroke="none" />
    <path d="M19.8842 16.3825C30.866 16.3825 39.7685 12.7151 39.7685 8.19123C39.7685 3.66734 30.866 0 19.8842 0C8.90247 0 0 3.66734 0 8.19123C0 12.7151 8.90247 16.3825 19.8842 16.3825Z" transform="translate(95.50923 76.39437)" id="Oval" fill="#B57AD2" stroke="none" />
    <path d="M104.084 12.2505C103.792 13.8019 103.101 15.2441 101.997 16.3803C100.922 17.4869 99.5793 18.3002 98.1842 18.9389C95.0495 20.3739 91.6084 21.0923 88.2226 21.6452C84.69 22.2219 81.1213 22.5736 77.5538 22.8492C73.9615 23.1267 70.3655 23.353 66.7669 23.5337C59.5845 23.8945 52.3978 24.1437 45.217 24.546C38.1226 24.9436 31.0125 25.4333 23.9907 26.5615C20.6194 27.1034 17.227 27.7731 14.0247 28.9869C12.5853 29.5325 10.9608 30.1944 9.88182 31.3343C9.48613 31.7523 9.35602 32.0747 9.49713 32.6361C9.66747 33.3137 10.0245 33.9463 10.3972 34.5309C11.3008 35.9474 12.458 37.2004 13.652 38.3752C13.9908 38.7087 14.3359 39.0346 14.6857 39.3564C14.8796 39.5349 14.9839 39.5799 15.23 39.6849C16.6823 40.3049 18.3031 40.5407 19.8591 40.7396C21.5729 40.9587 23.2974 41.0869 25.0222 41.1843C28.0736 41.3562 31.1322 41.4128 34.1868 41.5008C41.0571 41.6991 47.9446 41.9449 54.7426 43.0279C61.2688 44.0676 67.8898 45.9866 73.293 49.9205C75.9519 51.8562 78.271 54.2599 80.0122 57.0561C80.0609 57.1346 80.109 57.2135 80.1567 57.2924C80.246 57.4404 80.2441 57.376 80.1473 57.4992C80.0483 57.6252 79.8098 57.7245 79.6721 57.8157C79.3066 58.0571 78.9389 58.2953 78.5696 58.5304C77.8778 58.9704 77.1792 59.3994 76.4739 59.8174C75.0596 60.6553 73.6186 61.4476 72.1538 62.1934C70.6483 62.9596 69.1181 63.6762 67.5655 64.3418C66.8216 64.6605 66.073 64.9676 65.3193 65.263C65.176 65.3193 64.852 65.5022 64.7583 65.4214C64.6461 65.3246 64.5691 65.005 64.4965 64.8683C64.3117 64.5194 64.1005 64.1828 63.8651 63.8657C61.9964 61.3473 58.8887 59.8337 56.0384 58.7265C52.8324 57.481 49.4828 56.65 46.1136 55.985C42.6307 55.2976 39.1189 54.7857 35.5982 54.3378C32.1367 53.8975 28.6701 53.4965 25.2114 53.0332C21.8222 52.5794 18.414 52.0753 15.1203 51.133C12.3842 50.3505 9.66747 49.2096 7.60733 47.1913C7.09945 46.6937 6.6343 46.1419 6.17105 45.6035C5.06853 44.3231 4.02479 42.9871 3.10079 41.5712C1.4159 38.9897 0.0625899 36.0351 0.00193274 32.9026C-0.0634387 29.5215 1.53376 26.4412 4.14485 24.3395C6.7399 22.2508 10.0151 21.1175 13.2158 20.3475C16.5714 19.5401 20.0138 19.0809 23.4464 18.7547C30.5125 18.0834 37.6364 17.974 44.7295 17.9064C51.9213 17.8376 59.1131 17.8706 66.3046 17.754C73.4074 17.639 80.5584 17.4583 87.5996 16.4419C89.3266 16.1926 91.0492 15.8862 92.7404 15.4537C94.3162 15.0508 95.9248 14.5612 97.3233 13.7101C97.9233 13.3449 98.5355 12.8967 98.8743 12.2647C99.1918 11.6723 99.3448 10.8953 99.2512 10.2297C99.0444 8.75694 97.6074 7.75091 96.4116 7.07489C94.9932 6.27283 93.4388 5.72754 91.8749 5.28817C91.7407 5.25046 90.0196 4.7234 89.9628 4.84943C89.9628 4.60209 90.0712 4.31546 90.1221 4.07566C90.2409 3.51686 90.3613 2.95837 90.482 2.4002C90.6004 1.85334 90.7192 1.3068 90.8406 0.760257C90.8494 0.720029 90.9807 0 91.0156 0C91.0203 0.102457 92.4035 0.359229 92.5311 0.3916C94.0224 0.768114 95.4954 1.24237 96.9091 1.84957C99.5023 2.9634 102.076 4.60774 103.404 7.18897C104.206 8.74406 104.428 10.5386 104.084 12.2505Z" transform="translate(39.72661 83.47146)" id="Path" fill="#B57AD2" stroke="none" />
    <path d="M147.186 54.2771L0 54.2771C9.69571 22.8423 38.9777 0 73.5931 0C108.209 0 137.491 22.8423 147.186 54.2771Z" transform="translate(3.4068573 0)" id="Path" fill="#F0E3F7" stroke="none" />
    <g id="Group" transform="translate(1.8857143 39.914288)">
      <path d="M71.9892 57.8223L43.427 107.294C38.2098 104.94 33.2975 102.023 28.775 98.6197L5.22239 57.8223C-3.98933 41.866 -0.334183 23.4363 10.8638 11.7511C17.7027 4.61686 27.3544 0 38.6058 0C68.2807 4.46627e-15 86.8267 32.1231 71.9892 57.8223Z" transform="translate(0.07961192 0.028285714)" id="Path" fill="#B57AD2" stroke="none" />
      <path d="M40.1638 20.08C40.1638 29.5378 33.6254 37.4669 24.8229 39.5978C23.3027 39.9699 21.7134 40.1638 20.08 40.1638C8.99297 40.1638 0 31.1712 0 20.08C0 8.99266 8.99266 0 20.08 0C21.7137 0 23.3027 0.194229 24.8229 0.566029C33.6257 2.6972 40.1638 10.6263 40.1638 20.08Z" transform="translate(18.6032 18.495085)" id="Path" fill="#F0E3F7" stroke="none" />
      <path d="M30.6777 19.5137C30.6777 28.9715 24.1393 36.9006 15.3368 39.0315C6.53431 36.9006 0 28.9712 0 19.5137C0 10.06 6.53431 2.13086 15.3368 0C24.1397 2.13086 30.6777 10.06 30.6777 19.5137Z" transform="translate(28.089285 19.061428)" id="Path" fill="#FFFFFF" stroke="none" />
    </g>
    <g id="Group" transform="translate(87.057144 0)">
      <path d="M28.2373 84.5853L52.6551 42.2925C63.5074 23.4957 49.9422 0 28.2373 0L28.2373 0C6.53269 0 -7.03282 23.496 3.81946 42.2925L28.2373 84.5853Z" transform="translate(0.09905089 0.00031428572)" id="Path" fill="#B57AD2" stroke="none" />
      <path d="M29.3766 14.6872C29.3766 21.6049 24.5944 27.4045 18.156 28.963C17.044 29.2352 15.8818 29.3769 14.6869 29.3769C6.57737 29.3769 0 22.7995 0 14.6869C0 6.57737 6.57737 0 14.6869 0C15.8818 0 17.044 0.142057 18.156 0.413914C24.5944 1.97277 29.3766 7.7726 29.3766 14.6872Z" transform="translate(13.648171 13.507057)" id="Path" fill="#F0E3F7" stroke="none" />
      <path d="M22.4384 14.273C22.4384 21.1907 17.6563 26.9902 11.2178 28.5488C4.77934 26.9902 0 21.1904 0 14.273C0 7.35837 4.77934 1.55854 11.2178 0C17.6563 1.55854 22.4384 7.35837 22.4384 14.273Z" transform="translate(20.586344 13.921286)" id="Path" fill="#FFFFFF" stroke="none" />
    </g>
  </g>
</svg>