<?xml version="1.0" encoding="utf-8"?>
<svg width="221px" height="221px" viewBox="0 0 221 221" version="1.1" xmlns:xlink="http://www.w3.org/1999/xlink" xmlns="http://www.w3.org/2000/svg">
  <g id="Illustration" opacity="0.9">
    <path d="M221 110.5C221 126.845 217.451 142.36 211.082 156.32C200.195 180.183 181.066 199.49 157.338 210.614C153.04 212.625 148.589 214.37 144.006 215.822C138.852 217.469 133.534 218.736 128.076 219.606C128.054 219.611 128.027 219.616 128.003 219.616C125.326 220.044 122.623 220.373 119.886 220.604C119.303 220.653 118.718 220.698 118.131 220.739C117.305 220.793 116.476 220.842 115.641 220.879C113.936 220.96 112.223 221 110.5 221C108.731 221 106.978 220.96 105.233 220.874C104.444 220.838 103.653 220.793 102.864 220.734C102.274 220.693 101.687 220.653 101.1 220.604C98.2994 220.369 95.5258 220.025 92.7892 219.584C91.4808 219.371 90.1775 219.142 88.8876 218.884C83.2898 217.775 77.8504 216.247 72.5966 214.325C69.5515 213.215 66.5704 211.974 63.6569 210.609C62.6655 210.143 61.6774 209.661 60.6978 209.16C58.1821 207.889 55.7238 206.521 53.3245 205.065C41.3043 197.786 30.7864 188.278 22.334 177.116C17.2606 170.414 12.9357 163.116 9.48092 155.34C3.38737 141.639 0 126.466 0 110.5C0 49.4717 49.4717 0 110.5 0C171.528 0 221 49.4717 221 110.5Z" id="Path" fill="#FFE152" stroke="none" />
    <path d="M79 29.8249L79 105C73.4308 103.895 68.0193 102.374 62.7924 100.46C59.7629 99.3547 56.7971 98.1189 53.8985 96.7588C52.9121 96.2953 51.9291 95.8151 50.9545 95.3164C48.4518 94.0503 46.006 92.6885 43.619 91.2378C31.6604 83.9889 21.1964 74.5202 12.7873 63.4043C7.7398 56.7298 3.43712 49.4624 0 41.7182L0 29.8249C0 16.0274 9.36023 4.41614 22.072 1.01588C22.5384 0.889945 23.0047 0.772404 23.4811 0.675015C24.7409 0.396277 26.0375 0.206534 27.3577 0.0990694C28.1612 0.0369413 28.9731 0 29.7934 0L49.1999 0C51.3672 0 53.4808 0.230043 55.5189 0.675015C55.6347 0.696843 55.7521 0.72371 55.8678 0.750576C56.21 0.827816 56.5556 0.911773 56.8911 1.00245C56.9011 1.00748 56.9095 1.00748 56.9179 1.01084C60.2745 1.90918 63.3929 3.37843 66.1708 5.30944C73.924 10.6944 79 19.6644 79 29.8249Z" transform="translate(9 113)" id="Path" fill="#2BA1CF" stroke="none" />
    <path d="M67 29.8249L67 105C61.3646 103.895 55.8888 102.374 50.5997 100.46C47.5341 99.3547 44.5331 98.1189 41.6 96.7588C40.6019 96.2953 39.6073 95.8151 38.6211 95.3164C36.0885 94.0503 33.6137 92.6885 31.1983 91.2378C19.0975 83.9889 8.5091 74.5202 0 63.4043L0 29.8249C0 16.0274 9.47152 4.41614 22.3345 1.01588C22.808 0.889945 23.2799 0.772404 23.7603 0.675015C25.0367 0.396277 26.3488 0.206534 27.683 0.0990694C28.496 0.0369413 29.3176 0 30.1493 0L36.8456 0C39.0386 0 41.1774 0.230043 43.2397 0.675015C43.3568 0.696843 43.4757 0.72371 43.5928 0.750576C43.939 0.827816 44.2887 0.911773 44.6282 1.00245C44.6384 1.00748 44.6469 1.00748 44.6553 1.01084C48.0519 1.90918 51.2073 3.37843 54.0182 5.30944C61.8637 10.6944 67 19.6644 67 29.8249Z" transform="translate(22 113)" id="Path" fill="#66BAED" stroke="none" />
    <path d="M35 2.4575e-14L34.9295 0.339445L26.0126 42.0777C25.1568 46.0885 21.6497 48.9966 17.5755 49C17.5503 49 17.5268 49 17.5034 49C17.4765 49 17.4513 49 17.4245 49C13.3486 48.9966 9.84323 46.0885 8.98744 42.0777L0.0704768 0.342822L0 0L35 2.4575e-14Z" transform="translate(31 114)" id="Path" fill="#F2F0EC" stroke="none" />
    <path d="M18 16.5106L4.19753 24L0 4.93111L8.57628 0" transform="translate(32 109)" id="Path" fill="#D8D5D0" stroke="none" />
    <path d="M0 16.5106L13.8025 24L18 4.93111L9.42372 0" transform="translate(49 109)" id="Path" fill="#D8D5D0" stroke="none" />
    <path d="M0 85L0 40.0599C0 35.4934 0.77004 31.0192 2.28976 26.7614C7.97686 10.7569 23.3319 0 40.4983 0C42.6252 0 44.7471 0.162729 46.8096 0.484832C56.24 1.94268 64.8936 6.70377 71.1676 13.8924C77.5077 21.1581 81 30.4505 81 40.0599L81 85" transform="translate(8 21)" id="Path" fill="#CC7A3B" stroke="none" />
    <path d="M16.5761 41.813C16.5761 57.7091 25.9399 76.0999 31.0817 85L0 85L0 40.0581C0 35.4931 0.767803 31.0188 2.2781 26.7591C7.90246 10.8462 23.0392 0.120793 40 0C27.6122 0.307016 16.5761 20.0668 16.5761 41.813Z" transform="translate(10 21)" id="Path" fill="#A35418" stroke="none" />
    <path d="M22 0L22 13.226C22 18.0672 18.7418 22.1601 14.253 23.5188C13.2253 23.8317 12.13 24 10.9983 24C4.92283 24 0 19.1776 0 13.226L0 3.7117e-14L22 0Z" transform="translate(38 102)" id="Path" fill="#EAB599" stroke="none" />
    <path d="M15 4.89065e-14L15 0.828445C15 5.61259 11.8272 9.65735 7.45605 11C3.51251 9.79514 0.547668 6.38558 0 2.21479C0.71501 2.25848 1.43509 2.28032 2.15686 2.28032C4.18357 2.28032 6.1714 2.12068 8.10514 1.80477C10.4902 1.42331 12.7958 0.813321 15 0L15 4.89065e-14Z" transform="translate(45 114)" id="Path" fill="#F6CAAE" stroke="none" />
    <path d="M20 9.99915C20 14.9775 16.3638 19.1058 11.6009 19.871C11.0817 19.9559 10.5455 20 9.99915 20C4.47612 20 0 15.5239 0 9.99915C0 4.47612 4.47612 0 9.99915 0C10.5455 0 11.0817 0.0441166 11.6009 0.128956C16.3638 0.894206 20 5.02079 20 9.99915Z" transform="translate(0 70)" id="Path" fill="#F6CAAE" stroke="none" />
    <path d="M10 9.49918C10 14.2904 6.26134 18.2635 1.36427 19C0.476273 15.974 0 12.7881 0 9.49918C0 6.21195 0.476273 3.02596 1.36427 0C6.26134 0.736485 10 4.70795 10 9.49918Z" transform="translate(10 71)" id="Path" fill="#EAB599" stroke="none" />
    <path d="M7 3.49917C7 5.43318 5.43318 7 3.49917 7C1.56682 7 0 5.43318 0 3.49917C0 1.56682 1.56682 0 3.49917 0C5.43318 0 7 1.56682 7 3.49917Z" transform="translate(7 77)" id="Path" fill="#EAB599" stroke="none" />
    <path d="M62 22.5775L62 56.7687C56.7618 61.8134 50.0447 65.3072 42.5714 66.5224C42.5128 66.5325 42.4492 66.5426 42.3907 66.5527C40.5336 66.8515 38.6281 67 36.6824 67C16.4239 67 0 50.431 0 29.9936L0 15.9006C0 14.0964 0.127149 12.3208 0.374754 10.5858C9.10284 16.9184 21.6169 16.2922 29.5905 8.6904C32.2305 6.17392 34.0658 3.1781 35.1031 0C35.6802 5.56463 38.2031 10.9807 42.6751 15.2458C47.9986 20.3159 55.0319 22.7615 62 22.5775L62 22.5775Z" transform="translate(13 45)" id="Path" fill="#EAB599" stroke="none" />
    <path d="M51 22.7292L51 57.1502C45.718 62.2288 38.9446 65.746 31.4088 66.9694C31.3497 66.9796 31.2856 66.9898 31.2266 67C13.5332 64.2151 0 48.7938 0 30.1952L0 16.0075C0 15.6303 0.00674804 15.2548 0.0202441 14.881C6.54223 15.5538 13.3173 13.5115 18.3192 8.74711C20.9813 6.21541 22.832 3.19776 23.8779 0C24.46 5.60202 27.004 11.0545 31.5133 15.3482C36.8814 20.4524 43.9736 22.9144 51 22.7292Z" transform="translate(23 45)" id="Path" fill="#F6CAAE" stroke="none" />
    <path d="M13 6C13 2.68534 10.0891 0 6.5 0C2.9109 0 0 2.68534 0 6" transform="translate(56 66)" id="Path" fill="#EAB599" stroke="none" />
    <path d="M13 6C13 2.68534 10.0887 0 6.49911 0C2.90952 0 0 2.68534 0 6" transform="translate(29 66)" id="Path" fill="#EAB599" stroke="none" />
    <path d="M8 3.9992C8 6.20864 6.20864 8 3.9992 8C1.78975 8 0 6.20864 0 3.9992C0 1.78975 1.78975 0 3.9992 0C6.20864 0 8 1.78975 8 3.9992Z" transform="translate(31 70)" id="Path" fill="#3D4159" stroke="none" />
    <path d="M8 3.9992C8 6.20864 6.20989 8 4 8C1.79011 8 0 6.20864 0 3.9992C0 1.78975 1.79011 0 4 0C6.20989 0 8 1.78975 8 3.9992Z" transform="translate(59 70)" id="Path" fill="#3D4159" stroke="none" />
    <path d="M10.1933 3L1.80843 3C0.808989 3 0 2.32759 0 1.5C0 0.672414 0.808989 0 1.80843 0L10.1933 0C11.191 0 12 0.672414 12 1.5C12 2.32759 11.191 3 10.1933 3Z" transform="translate(43 81)" id="Path" fill="#EAB599" stroke="none" />
    <path d="M9.5 6C6.51925 6 3.5385 5.14045 0.820764 3.41949C0.0544715 2.93553 -0.22477 1.82746 0.195716 0.945493C0.617826 0.0635234 1.58056 -0.257872 2.34686 0.226089C6.82609 3.06072 12.1739 3.06072 16.6531 0.226089C17.4194 -0.259741 18.3822 0.0635234 18.8043 0.945493C19.2248 1.82746 18.9455 2.93553 18.1792 3.41949C15.4615 5.14045 12.4807 6 9.5 6Z" transform="translate(40 91)" id="Path" fill="#EAB599" stroke="none" />
    <path d="M3 1.5C3 2.3288 2.32739 3 1.5 3C0.671201 3 0 2.3288 0 1.5C0 0.671201 0.671201 0 1.5 0C2.32739 0 3 0.671201 3 1.5Z" transform="translate(36 73)" id="Path" fill="#FFFFFF" stroke="none" />
    <path d="M3 1.5C3 2.3288 2.32848 3 1.5007 3C0.671516 3 0 2.3288 0 1.5C0 0.671201 0.671516 0 1.5007 0C2.32848 0 3 0.671201 3 1.5Z" transform="translate(63 73)" id="Path" fill="#FFFFFF" stroke="none" />
    <path d="M9 4.50082C9 6.98517 6.98517 9 4.49918 9C2.01483 9 0 6.98517 0 4.50082C0 2.01483 2.01483 0 4.49918 0C6.98517 0 9 2.01483 9 4.50082Z" transform="translate(65 80)" id="Path" fill="#EAB599" stroke="none" />
    <path d="M9 4.50082C9 6.98517 6.98645 9 4.5 9C2.0152 9 0 6.98517 0 4.50082C0 2.01483 2.0152 0 4.5 0C6.98645 0 9 2.01483 9 4.50082Z" transform="translate(25 80)" id="Path" fill="#EAB599" stroke="none" />
    <path d="M84 31.4847L84 45.3867C72.9922 69.3696 53.6514 88.7739 29.6599 99.9528C25.3144 101.974 20.8138 103.728 16.1801 105.187C10.9686 106.843 5.5917 108.115 0.073306 108.99C0.0511438 108.995 0.0238672 109 0 109L0 31.4847C0 14.9628 12.8012 1.40817 29.0905 0.103367C29.948 0.0305016 30.8089 0 31.6801 0L52.3114 0C54.751 0 57.1257 0.266044 59.4067 0.787964C73.4883 3.98727 84 16.5218 84 31.4847L84 31.4847Z" transform="translate(128 111)" id="Path" fill="#BFD5DE" stroke="none" />
    <path d="M67 31.4286L67 45.3059C56.1253 69.2461 37.0182 88.6159 13.3168 99.7749C9.02383 101.793 4.5776 103.544 0 105L0 31.4286C0 14.0718 14.0157 0 31.3021 0L35.6979 0C52.9893 0 67 14.0718 67 31.4286Z" transform="translate(144 111)" id="Path" fill="#DDE8ED" stroke="none" />
    <path d="M21 10.5C21 15.7279 17.1821 20.0617 12.1825 20.8655C11.6358 20.954 11.0739 21 10.5 21C4.69997 21 0 16.3 0 10.5C0 4.69997 4.69997 0 10.5 0C11.0739 0 11.6358 0.0459781 12.1825 0.134528C17.1821 0.939994 21 5.27384 21 10.5Z" transform="translate(118 66)" id="Path" fill="#D3A489" stroke="none" />
    <path d="M17 0L8.5 13L0 0" transform="translate(161 123)" id="Path" fill="#F74F4F" stroke="none" />
    <path d="M23 41.6943L11.5009 56L0 41.6943L11.5026 0L23 41.6943Z" transform="translate(158 132)" id="Path" fill="#F74F4F" stroke="none" />
    <path d="M10 10.5C10 15.7957 6.26084 20.1858 1.36424 21C0.475317 17.6552 0 14.1345 0 10.5C0 6.86718 0.475317 3.34648 1.36424 0C6.26084 0.815919 10 5.20601 10 10.5Z" transform="translate(129 66)" id="Path" fill="#BF8E75" stroke="none" />
    <path d="M8 3.99909C8 6.2083 6.20831 8 3.99909 8C1.78988 8 0 6.2083 0 3.99909C0 1.78988 1.78988 0 3.99909 0C6.20831 0 8 1.78988 8 3.99909L8 3.99909Z" transform="translate(125 73)" id="Path" fill="#BF8E75" stroke="none" />
    <path d="M18 17.1985L4.19851 25L0 5.13724L8.5752 0" transform="translate(152 107)" id="Path" fill="#BFD5DE" stroke="none" />
    <path d="M0 17.1985L13.8019 25L18 5.13724L9.42394 0" transform="translate(169 107)" id="Path" fill="#BFD5DE" stroke="none" />
    <path d="M0 10.5C0 15.7279 3.81787 20.0617 8.81755 20.8655C9.36417 20.954 9.92613 21 10.5 21C16.3 21 21 16.3 21 10.5C21 4.69997 16.3 0 10.5 0C9.92613 0 9.36417 0.0459781 8.81755 0.134528C3.81787 0.939994 0 5.27384 0 10.5Z" transform="translate(200 66)" id="Path" fill="#D3A489" stroke="none" />
    <g id="Group" transform="translate(130 32)">
      <path d="M0 10.3331C0 15.5447 3.79204 19.865 8.75789 20.6663C9.66108 17.3747 10.1414 13.9099 10.1414 10.3331C10.1414 6.75805 9.66108 3.2933 8.75789 0C3.79204 0.802953 0 5.12328 0 10.3331Z" transform="translate(69.63692 34.63055)" id="Path" fill="#BF8E75" stroke="none" />
      <path d="M7.45554 3.73976C7.45554 5.80571 5.78616 7.48122 3.72777 7.48122C1.66938 7.48122 0 5.80571 0 3.73976C0 1.67381 1.66938 0 3.72777 0C5.78616 0 7.45554 1.67381 7.45554 3.73976Z" transform="translate(76.33811 41.223934)" id="Path" fill="#BF8E75" stroke="none" />
      <path d="M77.6049 39.0094C77.6049 58.389 63.4989 74.4667 45.0292 77.451C43.0047 77.7855 40.9243 77.9535 38.8016 77.9535C17.3703 77.9535 0 60.5194 0 39.0094C0 28.8325 3.52142 13.5543 9.88942 6.61629C16.9796 -1.10938 27.5101 0.0636465 38.8016 0.0636465C40.9243 0.0636465 43.003 0.233404 45.0292 0.567826C63.4989 3.55217 77.6049 19.6282 77.6049 39.0094L77.6049 39.0094Z" transform="translate(0.07272884 0.3913038)" id="Path" fill="#BF8E75" stroke="none" />
      <path d="M22.4292 0L22.4292 13.8132C22.4292 18.8703 19.1074 23.1448 14.5305 24.5639C13.4836 24.8899 12.3673 25.0664 11.2121 25.0664C5.01997 25.0664 0 20.028 0 13.8132L0 0L22.4292 0Z" transform="translate(27.660599 67.60257)" id="Path" fill="#BF8E75" stroke="none" />
    </g>
    <path d="M16 0L16 0.904074C16 6.12352 12.6156 10.5353 7.95261 12C3.74626 10.6859 0.584168 6.96627 0 2.41612C0.763382 2.46343 1.53021 2.48795 2.30221 2.48795C4.46311 2.48795 6.58266 2.31275 8.64707 1.96934C11.1905 1.55234 13.6478 0.888305 16 0L16 0Z" transform="translate(164 112)" id="Path" fill="#D3A489" stroke="none" />
    <path d="M65 38.5009C65 57.9094 50.9264 74.0112 32.4992 77C14.0736 74.0112 0 57.9094 0 38.5009C0 26.549 5.33581 15.8519 13.7411 8.6961C18.9825 4.23159 25.4202 1.14928 32.4992 0C49.6777 2.78649 63.078 16.974 64.8093 34.611C64.9359 35.8912 65 37.1901 65 38.5009L65 38.5009Z" transform="translate(143 33)" id="Path" fill="#D3A489" stroke="none" />
    <path d="M10.5008 6C7.20451 6 3.91163 5.14077 0.908587 3.42051C0.0596393 2.93641 -0.249069 1.82709 0.217423 0.944632C0.682201 0.0621753 1.74724 -0.259368 2.59448 0.226519C7.54409 3.05967 13.4559 3.05967 18.4072 0.226519C19.2527 -0.259368 20.3177 0.0621753 20.7825 0.944632C21.249 1.82709 20.9403 2.93641 20.0931 3.42051C17.09 5.14077 13.7937 6 10.5008 6L10.5008 6Z" transform="translate(159 84)" id="Path" fill="#BF8E75" stroke="none" />
    <path d="M9 4.50086C9 6.98559 6.98559 9 4.49914 9C2.01441 9 0 6.98559 0 4.50086C0 2.01441 2.01441 0 4.49914 0C6.98559 0 9 2.01441 9 4.50086L9 4.50086Z" transform="translate(152 64)" id="Path" fill="#3D4159" stroke="none" />
    <path d="M9 4.50086C9 6.98559 6.98559 9 4.50086 9C2.01441 9 0 6.98559 0 4.50086C0 2.01441 2.01441 0 4.50086 0C6.98559 0 9 2.01441 9 4.50086Z" transform="translate(178 64)" id="Path" fill="#3D4159" stroke="none" />
    <path d="M3 1.49933C3 2.32766 2.3287 3 1.5 3C0.671301 3 0 2.32766 0 1.49933C0 0.672344 0.671301 0 1.5 0C2.3287 0 3 0.672344 3 1.49933Z" transform="translate(157 66)" id="Path" fill="#FFFFFF" stroke="none" />
    <path d="M3 1.49933C3 2.32766 2.3287 3 1.5 3C0.671301 3 0 2.32766 0 1.49933C0 0.672344 0.671301 0 1.5 0C2.3287 0 3 0.672344 3 1.49933Z" transform="translate(182 66)" id="Path" fill="#FFFFFF" stroke="none" />
    <path d="M11.0407 3L1.95933 3C0.8776 3 0 2.32784 0 1.49933C0 0.670824 0.8776 0 1.95933 0L11.0407 0C12.1224 0 13 0.670824 13 1.49933C12.9983 2.32784 12.1224 3 11.0407 3L11.0407 3Z" transform="translate(163 77)" id="Path" fill="#BF8E75" stroke="none" />
    <path d="M2.47358e-14 0L17 0L17 5L0 5L2.47358e-14 0Z" transform="translate(182 142)" id="Path" fill="#BFD5DE" stroke="none" />
    <path d="M0 0.0612976C11.7191 0.903488 21.1281 10.4359 21.7233 22.4354L21.8346 24.6886L28.5761 24.6886L32.2065 49L41 46.2595L39.8197 22.4371C39.1958 9.83138 28.8425 -0.0473721 16.314 0.000170883L0 0.0612976Z" transform="translate(167 21)" id="Path" fill="#2A2F4F" stroke="none" />
    <path d="M33.9657 0C43.3448 9.37908 43.3448 24.5866 33.9657 33.9657C24.5866 43.3448 9.37908 43.3448 0 33.9657L33.9657 0Z" transform="translate(172 12)" id="Path" fill="#3D4159" stroke="none" />
    <path d="M41.9581 24.6877L12.4869 24.6877L8.83693 49L0 46.2596L1.18447 22.4363C1.81144 9.83443 12.2158 -0.0473709 24.8078 0.000170822L67.3725 0.161471L73 10.3098" transform="translate(131 21)" id="Path" fill="#3D4159" stroke="none" />
    <path d="M41 0.0612976C29.2809 0.903488 19.8719 10.4359 19.2767 22.4354L19.1654 24.6886L12.4256 24.6886L8.79354 49L0 46.2595L1.18034 22.4371C1.80424 9.83138 12.1575 -0.0473721 24.686 0.000170883L41 0.0612976Z" transform="translate(131 21)" id="Path" fill="#2A2F4F" stroke="none" />
    <path d="M94 35.3301L94 43.6147C79.7311 50.2758 63.8058 54 47.0025 54C30.1992 54 14.2689 50.2758 0 43.6097L0 35.3301C0 18.9818 11.1373 5.23141 26.2657 1.20037C26.819 1.05201 27.3756 0.915454 27.9406 0.794068C29.443 0.468686 30.9859 0.244459 32.5526 0.118015C33.5119 0.0404621 34.4762 0 35.4541 0L58.5425 0C61.126 0 63.6383 0.271433 66.0644 0.794068C66.2049 0.821043 66.3453 0.853075 66.4806 0.885108C66.8884 0.97952 67.2944 1.07899 67.6971 1.18689C67.7123 1.19026 67.7157 1.19026 67.7292 1.19532C71.7219 2.25913 75.4372 4.00069 78.7363 6.28679C87.9635 12.6646 94 23.2927 94 35.3301L94 35.3301Z" transform="translate(63 167)" id="Path" fill="#3D4159" stroke="none" />
    <path d="M41 0L40.915 0.399696L29.7791 52.6053C29.2026 52.654 28.6245 52.6994 28.0447 52.7397C27.2284 52.7934 26.4087 52.8421 25.584 52.8791C23.8996 52.9597 22.2069 53 20.5042 53C18.7565 53 17.0238 52.9597 15.2994 52.874C14.5197 52.8388 13.7383 52.7934 12.9586 52.7347C12.3755 52.6944 11.7957 52.654 11.2159 52.6053L0.0833031 0.404734L0 0L41 0Z" transform="translate(90 168)" id="Path" fill="#66BAED" stroke="none" />
    <path d="M19 0L9.49916 15L0 0" transform="translate(101 180)" id="Path" fill="#3D4159" stroke="none" />
    <path d="M15 29.7387C14.1883 29.7926 13.3733 29.8415 12.5533 29.8786C10.8785 29.9595 9.19547 30 7.50248 30C5.76477 30 4.04197 29.9595 2.32744 29.8736C1.55218 29.8381 0.775262 29.7926 0 29.7336L7.50248 0L15 29.7387Z" transform="translate(103 191)" id="Path" fill="#3D4159" stroke="none" />
    <path d="M21 19.9507L4.89801 29L0 5.95983L10.0042 0" transform="translate(89 162)" id="Path" fill="#2BA1CF" stroke="none" />
    <path d="M0 19.9507L16.1016 29L21 5.95983L10.995 0" transform="translate(111 162)" id="Path" fill="#2BA1CF" stroke="none" />
    <path d="M15.9049 30.3251L20.8589 30.3251L12.2072 51.7292C8.20486 52.3823 4.1314 52.8098 0 53L15.1998 0.392193L15.3156 0L26 3.54826L15.9049 30.3251Z" transform="translate(116 168)" id="Path" fill="#2A2F4F" stroke="none" />
    <path d="M26 53C21.8642 52.8064 17.7879 52.3704 13.7861 51.7122L5.14373 30.328L10.0971 30.328L0 3.5486L10.6863 0L10.8022 0.392231L26 53Z" transform="translate(79 168)" id="Path" fill="#2A2F4F" stroke="none" />
    <path d="M25 0L25 15.4285C25 21.0786 21.297 25.8526 16.1963 27.4384C15.0278 27.8033 13.7839 28 12.4967 28C5.59382 28 0 22.3717 0 15.4285L0 2.44702e-14L25 0Z" transform="translate(98 153)" id="Path" fill="#EAB599" stroke="none" />
    <path d="M18 0L18 0.979544C18 6.63296 14.1923 11.4112 8.94757 13C4.21507 11.5744 0.656671 7.54687 0 2.61717C0.859517 2.66934 1.72247 2.69459 2.58886 2.69459C5.0213 2.69459 7.4056 2.50608 9.72629 2.13413C12.5885 1.68307 15.3527 0.961031 18 0L18 0Z" transform="translate(105 167)" id="Path" fill="#F6CAAE" stroke="none" />
    <path d="M24 12.0009C24 17.9737 19.6356 22.9266 13.9216 23.8464C13.2969 23.9465 12.6549 24 12.0009 24C5.37226 24 0 18.6295 0 12.0009C0 5.37226 5.37053 0 12.0009 0C12.6549 0 13.2969 0.0534983 13.9216 0.155318C19.6356 1.07514 24 6.02804 24 12.0009Z" transform="translate(52 116)" id="Path" fill="#F6CAAE" stroke="none" />
    <path d="M11 11.5C11 17.2986 6.88598 22.107 1.49985 23C0.522183 19.3359 0 15.4791 0 11.5C0 7.51923 0.522183 3.66412 1.49985 0C6.88598 0.892992 11 5.70141 11 11.5Z" transform="translate(65 117)" id="Path" fill="#EAB599" stroke="none" />
    <path d="M8 4C8 6.20845 6.20845 8 4 8C1.78994 8 0 6.20845 0 4C0 1.78994 1.78994 0 4 0C6.20845 0 8 1.78994 8 4Z" transform="translate(60 124)" id="Path" fill="#EAB599" stroke="none" />
    <path d="M0 12.0009C0 17.9737 4.36442 22.9266 10.0784 23.8464C10.7014 23.9465 11.3451 24 11.9991 24C18.6277 24 24 18.6295 24 12.0009C24 5.37226 18.6295 0 11.9991 0C11.3451 0 10.7014 0.0534983 10.0784 0.155318C4.36442 1.07514 0 6.02804 0 12.0009Z" transform="translate(145 116)" id="Path" fill="#F6CAAE" stroke="none" />
    <path d="M0 11.5C0 17.2986 4.11402 22.107 9.50015 23C10.4778 19.3359 11 15.4791 11 11.5C11 7.51923 10.4778 3.66412 9.50015 0C4.11402 0.892992 0 5.70141 0 11.5Z" transform="translate(145 117)" id="Path" fill="#EAB599" stroke="none" />
    <path d="M88 43.6847L88 60.3187C88 82.0572 72.0036 100.089 51.0594 103.436C50.9896 103.448 50.9148 103.46 50.8451 103.471C48.6169 103.826 46.331 104 43.9974 104C19.6975 104 0 84.4431 0 60.3204L0 43.6847C0 38.6055 0.872533 33.7239 2.48493 29.1884C8.50252 12.188 24.8187 0 43.9974 0L44.0009 0C46.331 0 48.6203 0.178987 50.8519 0.528519C71.8981 3.7925 88 21.8736 88 43.6847L88 43.6847Z" transform="translate(67 61)" id="Path" fill="#EAB599" stroke="none" />
    <path d="M8 4C8 6.20845 6.21006 8 4 8C1.79155 8 0 6.20845 0 4C0 1.78994 1.79155 0 4 0C6.21006 0 8 1.78994 8 4L8 4Z" transform="translate(153 124)" id="Path" fill="#EAB599" stroke="none" />
    <path d="M73 43.1801L73 59.8233C73 81.5722 57.2847 99.6159 36.7064 102.965C36.6362 102.976 36.5643 102.988 36.4942 103C15.8173 99.7325 0 81.6431 0 59.8233L0 43.1801C0 21.3569 15.8206 3.26579 36.5025 0C57.1811 3.26579 73 21.3569 73 43.1801L73 43.1801Z" transform="translate(81 62)" id="Path" fill="#F6CAAE" stroke="none" />
    <path d="M10 4.99915C10 7.76112 7.76112 10 5.00085 10C2.23888 10 0 7.76112 0 4.99915C0 2.23888 2.23888 0 5.00085 0C7.76112 0 10 2.23888 10 4.99915L10 4.99915Z" transform="translate(92 115)" id="Path" fill="#3D4159" stroke="none" />
    <path d="M10 4.99915C10 7.76112 7.7615 10 5 10C2.2385 10 0 7.76112 0 4.99915C0 2.23888 2.2385 0 5 0C7.7615 0 10 2.23888 10 4.99915L10 4.99915Z" transform="translate(119 115)" id="Path" fill="#3D4159" stroke="none" />
    <path d="M4 2.00079C4 3.10457 3.10457 4 1.9992 4C0.895427 4 0 3.10457 0 2.00079C0 0.895428 0.895427 0 1.9992 0C3.10457 0 4 0.895428 4 2.00079Z" transform="translate(96 117)" id="Path" fill="#FFFFFF" stroke="none" />
    <path d="M4 2.00079C4 3.10457 3.10457 4 2.0008 4C0.895427 4 0 3.10457 0 2.00079C0 0.895428 0.895427 0 2.0008 0C3.10457 0 4 0.895428 4 2.00079Z" transform="translate(124 117)" id="Path" fill="#FFFFFF" stroke="none" />
    <path d="M11.0412 4L1.95882 4C0.877291 4 0 3.10427 0 2C0 0.894155 0.877291 0 1.95882 0L11.0412 0C12.1227 0 13 0.894155 13 2C12.9985 3.10427 12.1212 4 11.0412 4Z" transform="translate(104 126)" id="Path" fill="#EAB599" stroke="none" />
    <path d="M11.5 6C7.89206 6 4.28246 5.14002 0.994336 3.42006C0.066533 2.93544 -0.273273 1.82681 0.238101 0.946242C0.74781 0.0640908 1.91381 -0.257411 2.84161 0.225633C8.26352 3.06055 14.7365 3.06055 20.1584 0.225633C21.0862 -0.258995 22.2522 0.0625067 22.7619 0.946242C23.2733 1.82681 22.9335 2.93544 22.0057 3.42006C18.7159 5.14002 15.1079 6 11.5 6L11.5 6Z" transform="translate(99 137)" id="Path" fill="#EAB599" stroke="none" />
    <path d="M88 35.0294L88 52L79.8106 52L79.8106 38.7091L20.6972 27.8483L8.18941 25.5493L8.18941 52L0 52L0 35.0277C0 15.6807 15.8584 0 35.4211 0L52.5789 0C53.0449 0 53.5109 0.00840912 53.977 0.0319535C72.8883 0.751747 88 16.1432 88 35.0294L88 35.0294Z" transform="translate(67 55)" id="Path" fill="#2A2F4F" stroke="none" />
    <path d="M67 35.0189L67 52L58.8474 52L58.8474 38.7009L0 27.8334C3.2424 12.3551 16.7538 0.627682 33.13 0C51.9563 0.720236 67 16.1212 67 35.0189Z" transform="translate(88 55)" id="Path" fill="#3D4159" stroke="none" />
  </g>
</svg>